<?xml version="1.0"?><svg fill="#000000" xmlns="http://www.w3.org/2000/svg"  viewBox="0 0 64 64" width="64px" height="64px">    <path d="M 9 6 C 7.346 6 6 7.346 6 9 L 6 55 C 6 56.654 7.346 58 9 58 L 55 58 C 56.654 58 58 56.654 58 55 L 58 9 C 58 7.346 56.654 6 55 6 L 9 6 z M 9 8 L 55 8 C 55.551 8 56 8.448 56 9 L 56 55 C 56 55.552 55.551 56 55 56 L 9 56 C 8.449 56 8 55.552 8 55 L 8 9 C 8 8.448 8.449 8 9 8 z M 30 20 C 27.794 20 26 21.794 26 24 L 26 25 C 26 25.553 26.448 26 27 26 C 27.552 26 28 25.553 28 25 L 28 24 C 28 22.897 28.897 22 30 22 L 32 22 C 33.103 22 34 22.897 34 24 L 34 25.183594 C 34 26.173594 33.709156 27.133031 33.160156 27.957031 L 27.205078 36.890625 C 26.794078 37.505625 26.756469 38.290359 27.105469 38.943359 C 27.454469 39.594359 28.129141 40 28.869141 40 L 35 40 C 35.552 40 36 39.553 36 39 C 36 38.447 35.552 38 35 38 L 28.869141 38 L 34.824219 29.066406 C 35.592219 27.913406 36 26.569594 36 25.183594 L 36 24 C 36 21.794 34.206 20 32 20 L 30 20 z M 21.09375 20.003906 C 20.801484 19.975828 20.507469 20.078469 20.292969 20.292969 L 17.292969 23.292969 C 16.901969 23.683969 16.901969 24.316031 17.292969 24.707031 C 17.683969 25.098031 18.316031 25.098031 18.707031 24.707031 L 20 23.414062 L 20 39 C 20 39.553 20.448 40 21 40 C 21.552 40 22 39.553 22 39 L 22 21 C 22 20.596 21.755813 20.230172 21.382812 20.076172 C 21.289062 20.036922 21.191172 20.013266 21.09375 20.003906 z M 43 26 C 41.346 26 40 27.346 40 29 L 40 37 C 40 38.654 41.346 40 43 40 L 45 40 C 46.654 40 48 38.654 48 37 C 48 36.447 47.552 36 47 36 C 46.448 36 46 36.447 46 37 C 46 37.552 45.551 38 45 38 L 43 38 C 42.449 38 42 37.552 42 37 L 42 29 C 42 28.448 42.449 28 43 28 L 45 28 C 45.551 28 46 28.448 46 29 C 46 29.553 46.448 30 47 30 C 47.552 30 48 29.553 48 29 C 48 27.346 46.654 26 45 26 L 43 26 z M 12 48 C 11.448 48 11 48.447 11 49 L 11 51 C 11 51.553 11.448 52 12 52 C 12.552 52 13 51.553 13 51 L 13 49 C 13 48.447 12.552 48 12 48 z M 17 48 C 16.448 48 16 48.447 16 49 L 16 51 C 16 51.553 16.448 52 17 52 C 17.552 52 18 51.553 18 51 L 18 49 C 18 48.447 17.552 48 17 48 z M 22 48 C 21.448 48 21 48.447 21 49 L 21 51 C 21 51.553 21.448 52 22 52 C 22.552 52 23 51.553 23 51 L 23 49 C 23 48.447 22.552 48 22 48 z M 27 48 C 26.448 48 26 48.447 26 49 L 26 51 C 26 51.553 26.448 52 27 52 C 27.552 52 28 51.553 28 51 L 28 49 C 28 48.447 27.552 48 27 48 z M 32 48 C 31.448 48 31 48.447 31 49 L 31 51 C 31 51.553 31.448 52 32 52 C 32.552 52 33 51.553 33 51 L 33 49 C 33 48.447 32.552 48 32 48 z M 37 48 C 36.448 48 36 48.447 36 49 L 36 51 C 36 51.553 36.448 52 37 52 C 37.552 52 38 51.553 38 51 L 38 49 C 38 48.447 37.552 48 37 48 z M 42 48 C 41.448 48 41 48.447 41 49 L 41 51 C 41 51.553 41.448 52 42 52 C 42.552 52 43 51.553 43 51 L 43 49 C 43 48.447 42.552 48 42 48 z M 47 48 C 46.448 48 46 48.447 46 49 L 46 51 C 46 51.553 46.448 52 47 52 C 47.552 52 48 51.553 48 51 L 48 49 C 48 48.447 47.552 48 47 48 z M 52 48 C 51.448 48 51 48.447 51 49 L 51 51 C 51 51.553 51.448 52 52 52 C 52.552 52 53 51.553 53 51 L 53 49 C 53 48.447 52.552 48 52 48 z"/></svg>