<?xml version="1.0"?><svg fill="#000000" xmlns="http://www.w3.org/2000/svg"  viewBox="0 0 64 64" width="64px" height="64px">    <path d="M 17.660156 4 C 16.320156 4 15.059141 4.5209375 14.119141 5.4609375 L 5.4609375 14.119141 C 4.5209375 15.069141 4 16.320156 4 17.660156 L 4 57 C 4 58.65 5.35 60 7 60 L 47 60 C 48.65 60 50 58.65 50 57 L 50 46 L 58 46 C 59.1 46 60 45.1 60 44 L 60 24 C 60 22.9 59.1 22 58 22 L 50 22 L 50 7 C 50 5.35 48.65 4 47 4 L 17.660156 4 z M 18 6 L 47 6 C 47.55 6 48 6.45 48 7 L 48 22 L 16 22 C 14.9 22 14 22.9 14 24 L 14 44 C 14 45.1 14.9 46 16 46 L 48 46 L 48 57 C 48 57.55 47.55 58 47 58 L 7 58 C 6.45 58 6 57.55 6 57 L 6 18 L 15 18 C 16.654 18 18 16.654 18 15 L 18 6 z M 16 6.4980469 L 16 15 C 16 15.552 15.551 16 15 16 L 6.5019531 16 C 6.6119531 15.834 6.7388594 15.679063 6.8808594 15.539062 L 15.539062 6.8808594 C 15.681062 6.7368594 15.836 6.6080469 16 6.4980469 z M 16 24 L 48 24 L 50 24 L 58 24 L 58 44 L 50 44 L 48 44 L 16 44 L 16 24 z M 35 28 C 34.559 28 34.169969 28.289891 34.042969 28.712891 L 31.042969 38.712891 C 30.884969 39.240891 31.183891 39.798031 31.712891 39.957031 C 32.242891 40.114031 32.799031 39.816109 32.957031 39.287109 L 33.34375 38 L 36.65625 38 L 37.042969 39.287109 C 37.172969 39.721109 37.569 40 38 40 C 38.095 40 38.191109 39.985031 38.287109 39.957031 C 38.816109 39.798031 39.115031 39.240891 38.957031 38.712891 L 35.957031 28.712891 C 35.830031 28.289891 35.441 28 35 28 z M 42 28 C 41.447 28 41 28.447 41 29 L 41 39 C 41 39.553 41.447 40 42 40 C 42.553 40 43 39.553 43 39 L 43 29 C 43 28.447 42.553 28 42 28 z M 35 32.480469 L 36.056641 36 L 33.943359 36 L 35 32.480469 z M 9 52 C 8.448 52 8 52.447 8 53 L 8 55 C 8 55.553 8.448 56 9 56 C 9.552 56 10 55.553 10 55 L 10 53 C 10 52.447 9.552 52 9 52 z M 14 52 C 13.448 52 13 52.447 13 53 L 13 55 C 13 55.553 13.448 56 14 56 C 14.552 56 15 55.553 15 55 L 15 53 C 15 52.447 14.552 52 14 52 z M 19 52 C 18.448 52 18 52.447 18 53 L 18 55 C 18 55.553 18.448 56 19 56 C 19.552 56 20 55.553 20 55 L 20 53 C 20 52.447 19.552 52 19 52 z M 24 52 C 23.448 52 23 52.447 23 53 L 23 55 C 23 55.553 23.448 56 24 56 C 24.552 56 25 55.553 25 55 L 25 53 C 25 52.447 24.552 52 24 52 z M 29 52 C 28.448 52 28 52.447 28 53 L 28 55 C 28 55.553 28.448 56 29 56 C 29.552 56 30 55.553 30 55 L 30 53 C 30 52.447 29.552 52 29 52 z M 34 52 C 33.448 52 33 52.447 33 53 L 33 55 C 33 55.553 33.448 56 34 56 C 34.552 56 35 55.553 35 55 L 35 53 C 35 52.447 34.552 52 34 52 z M 39 52 C 38.448 52 38 52.447 38 53 L 38 55 C 38 55.553 38.448 56 39 56 C 39.552 56 40 55.553 40 55 L 40 53 C 40 52.447 39.552 52 39 52 z M 44 52 C 43.448 52 43 52.447 43 53 L 43 55 C 43 55.553 43.448 56 44 56 C 44.552 56 45 55.553 45 55 L 45 53 C 45 52.447 44.552 52 44 52 z"/></svg>