<svg fill="#000000" xmlns="http://www.w3.org/2000/svg"  viewBox="0 0 64 64" width="64px" height="64px"><path d="M 11 2.054688 C 7.140625 2.054688 4 5.195313 4 9.054688 L 4 51.054688 C 4 54.914063 7.140625 58 11 58 L 53 58 C 56.859375 58 60 54.914063 60 51.054688 L 60 9.054688 C 60 5.195313 56.859375 2.054688 53 2.054688 Z M 11 4 L 53 4 C 55.757813 4 58 6.296875 58 9.054688 L 58 51.054688 C 58 53.8125 55.757813 56.054688 53 56.054688 L 11 56.054688 C 8.242188 56.054688 6 53.8125 6 51.054688 L 6 9.054688 C 6 6.296875 8.242188 4 11 4 Z M 9 8.054688 C 8.449219 8.054688 8 8.503906 8 9.054688 L 8 11.054688 C 8 11.605469 8.449219 12.054688 9 12.054688 C 9.550781 12.054688 10 11.605469 10 11.054688 L 10 9.054688 C 10 8.5 9.550781 8.054688 9 8.054688 Z M 14 8.054688 C 13.449219 8.054688 13 8.503906 13 9.054688 L 13 11.054688 C 13 11.605469 13.449219 12.054688 14 12.054688 C 14.550781 12.054688 15 11.605469 15 11.054688 L 15 9.054688 C 15 8.503906 14.550781 8.054688 14 8.054688 Z M 19 8.054688 C 18.449219 8.054688 18 8.503906 18 9.054688 L 18 11.054688 C 18 11.605469 18.449219 12.054688 19 12.054688 C 19.550781 12.054688 20 11.605469 20 11.054688 L 20 9.054688 C 20 8.503906 19.550781 8.054688 19 8.054688 Z M 24 8.054688 C 23.449219 8.054688 23 8.503906 23 9.054688 L 23 11.054688 C 23 11.605469 23.449219 12.054688 24 12.054688 C 24.550781 12.054688 25 11.605469 25 11.054688 L 25 9.054688 C 25 8.5 24.550781 8.054688 24 8.054688 Z M 29 8.054688 C 28.449219 8.054688 28 8.503906 28 9.054688 L 28 11.054688 C 28 11.605469 28.449219 12.054688 29 12.054688 C 29.550781 12.054688 30 11.605469 30 11.054688 L 30 9.054688 C 30 8.503906 29.550781 8.054688 29 8.054688 Z M 34 8.054688 C 33.449219 8.054688 33 8.503906 33 9.054688 L 33 11.054688 C 33 11.605469 33.449219 12.054688 34 12.054688 C 34.550781 12.054688 35 11.605469 35 11.054688 L 35 9.054688 C 35 8.503906 34.550781 8.054688 34 8.054688 Z M 39 8.054688 C 38.449219 8.054688 38 8.503906 38 9.054688 L 38 11.054688 C 38 11.605469 38.449219 12.054688 39 12.054688 C 39.550781 12.054688 40 11.605469 40 11.054688 L 40 9.054688 C 40 8.503906 39.550781 8.054688 39 8.054688 Z M 44 8.054688 C 43.449219 8.054688 43 8.503906 43 9.054688 L 43 11.054688 C 43 11.605469 43.449219 12.054688 44 12.054688 C 44.550781 12.054688 45 11.605469 45 11.054688 L 45 9.054688 C 45 8.503906 44.550781 8.054688 44 8.054688 Z M 49 8.054688 C 48.449219 8.054688 48 8.503906 48 9.054688 L 48 11.054688 C 48 11.605469 48.449219 12.054688 49 12.054688 C 49.550781 12.054688 50 11.605469 50 11.054688 L 50 9.054688 C 50 8.5 49.550781 8.054688 49 8.054688 Z M 54 8.054688 C 53.449219 8.054688 53 8.503906 53 9.054688 L 53 11.054688 C 53 11.605469 53.449219 12.054688 54 12.054688 C 54.550781 12.054688 55 11.605469 55 11.054688 L 55 9.054688 C 55 8.5 54.550781 8.054688 54 8.054688 Z M 20.996094 22.015625 L 17.976563 22.035156 C 15.785156 22.050781 14 23.84375 14 26.035156 L 14 36.054688 C 14 38.261719 15.792969 40.054688 18 40.054688 L 21.019531 40.054688 C 23.214844 40.054688 25 38.269531 25 36.074219 L 25 33 C 25 32.449219 24.550781 32 24 32 C 23.449219 32 23 32.449219 23 33 L 23 36.074219 C 23 37.167969 22.113281 38.054688 21.019531 38.054688 L 18 38.054688 C 16.898438 38.054688 16 37.15625 16 36.054688 L 16 26.035156 C 16 24.941406 16.890625 24.042969 17.988281 24.035156 L 21.007813 24.015625 C 21.503906 24.015625 22.039063 24.21875 22.417969 24.59375 C 22.792969 24.96875 23 25.46875 23 26 C 23 26.550781 23.449219 27 24 27 C 24.550781 27 25 26.550781 25 26 C 25 24.929688 24.582031 23.929688 23.828125 23.175781 C 23.074219 22.429688 22.078125 22.015625 21.019531 22.015625 Z M 33 26 C 32.449219 26 32 26.449219 32 27 L 32 30 L 29 30 C 28.449219 30 28 30.449219 28 31 C 28 31.550781 28.449219 32 29 32 L 32 32 L 32 35 C 32 35.550781 32.449219 36 33 36 C 33.550781 36 34 35.550781 34 35 L 34 32 L 37 32 C 37.550781 32 38 31.550781 38 31 C 38 30.449219 37.550781 30 37 30 L 34 30 L 34 27 C 34 26.449219 33.550781 26 33 26 Z M 45 26 C 44.449219 26 44 26.449219 44 27 L 44 30 L 41 30 C 40.449219 30 40 30.449219 40 31 C 40 31.550781 40.449219 32 41 32 L 44 32 L 44 35 C 44 35.550781 44.449219 36 45 36 C 45.550781 36 46 35.550781 46 35 L 46 32 L 49 32 C 49.550781 32 50 31.550781 50 31 C 50 30.449219 49.550781 30 49 30 L 46 30 L 46 27 C 46 26.449219 45.550781 26 45 26 Z"/></svg>