<svg fill="#000000" xmlns="http://www.w3.org/2000/svg"  viewBox="0 0 64 64" width="64px" height="64px"><path d="M 22.660156 4 C 21.333156 3.998 20.059141 4.5239375 19.119141 5.4609375 L 10.460938 14.119141 C 9.5239375 15.059141 8.998 16.333156 9 17.660156 L 9 57 C 9 58.657 10.343 60 12 60 L 52 60 C 53.657 60 55 58.657 55 57 L 55 7 C 55 5.343 53.657 4 52 4 L 22.660156 4 z M 23 6 L 52 6 C 52.552 6 53 6.448 53 7 L 53 57 C 53 57.552 52.552 58 52 58 L 12 58 C 11.448 58 11 57.552 11 57 L 11 18 L 20 18 C 21.657 18 23 16.657 23 15 L 23 6 z M 21 6.5 L 21 15 C 21 15.552 20.552 16 20 16 L 11.5 16 C 11.611 15.834 11.738859 15.679063 11.880859 15.539062 L 20.539062 6.8808594 C 20.679063 6.7388594 20.834 6.611 21 6.5 z M 33.175781 21.001953 C 28.808301 20.928344 24.725969 23.602734 23.214844 27.693359 C 21.204844 28.238359 19.494516 29.467219 18.353516 31.199219 C 17.143516 33.039219 16.725734 35.232 17.177734 37.375 C 17.985734 41.2 21.471703 43.986 25.470703 44 L 41.857422 44 C 43.494422 43.999 45.035359 43.374188 46.193359 42.242188 C 47.359359 41.103187 47.999047 39.588563 47.998047 37.976562 C 47.995047 35.150563 45.995344 32.759953 43.277344 32.126953 C 43.512344 29.859953 42.961547 27.594344 41.685547 25.652344 C 40.166547 23.339344 37.812594 21.761078 35.058594 21.205078 C 34.429719 21.078453 33.799707 21.012469 33.175781 21.001953 z M 32.988281 23 C 33.542281 23 34.104109 23.054016 34.662109 23.166016 C 36.889109 23.615016 38.789672 24.888953 40.013672 26.751953 C 41.191672 28.544953 41.596297 30.680672 41.154297 32.763672 C 41.093297 33.049672 41.161844 33.348078 41.339844 33.580078 C 41.517844 33.813078 41.786125 33.956656 42.078125 33.972656 C 44.274125 34.089656 45.996047 35.849469 45.998047 37.980469 C 45.999047 39.047469 45.571922 40.052547 44.794922 40.810547 C 44.011922 41.576547 42.967469 41.997047 41.855469 41.998047 L 25.472656 41.998047 C 22.413656 41.989047 19.746813 39.870937 19.132812 36.960938 C 18.791812 35.345938 19.108438 33.691734 20.023438 32.302734 C 20.975438 30.856734 22.452641 29.868484 24.181641 29.521484 C 24.543641 29.448484 24.834406 29.183078 24.941406 28.830078 C 26.000406 25.334078 29.354281 23 32.988281 23 z M 14 50 C 13.448 50 13 50.448 13 51 L 13 53 C 13 53.552 13.448 54 14 54 C 14.552 54 15 53.552 15 53 L 15 51 C 15 50.448 14.552 50 14 50 z M 19 50 C 18.448 50 18 50.448 18 51 L 18 53 C 18 53.552 18.448 54 19 54 C 19.552 54 20 53.552 20 53 L 20 51 C 20 50.448 19.552 50 19 50 z M 24 50 C 23.448 50 23 50.448 23 51 L 23 53 C 23 53.552 23.448 54 24 54 C 24.552 54 25 53.552 25 53 L 25 51 C 25 50.448 24.552 50 24 50 z M 29 50 C 28.448 50 28 50.448 28 51 L 28 53 C 28 53.552 28.448 54 29 54 C 29.552 54 30 53.552 30 53 L 30 51 C 30 50.448 29.552 50 29 50 z M 34 50 C 33.448 50 33 50.448 33 51 L 33 53 C 33 53.552 33.448 54 34 54 C 34.552 54 35 53.552 35 53 L 35 51 C 35 50.448 34.552 50 34 50 z M 39 50 C 38.448 50 38 50.448 38 51 L 38 53 C 38 53.552 38.448 54 39 54 C 39.552 54 40 53.552 40 53 L 40 51 C 40 50.448 39.552 50 39 50 z M 44 50 C 43.448 50 43 50.448 43 51 L 43 53 C 43 53.552 43.448 54 44 54 C 44.552 54 45 53.552 45 53 L 45 51 C 45 50.448 44.552 50 44 50 z M 49 50 C 48.448 50 48 50.448 48 51 L 48 53 C 48 53.552 48.448 54 49 54 C 49.552 54 50 53.552 50 53 L 50 51 C 50 50.448 49.552 50 49 50 z"/></svg>