<svg fill="#000000" xmlns="http://www.w3.org/2000/svg"  viewBox="0 0 64 64" width="64px" height="64px"><path d="M 22.65625 4 C 21.320313 4 20.066406 4.519531 19.121094 5.464844 L 10.464844 14.121094 C 9.519531 15.066406 9 16.320313 9 17.65625 L 9 57 C 9 58.652344 10.347656 60 12 60 L 52 60 C 53.652344 60 55 58.652344 55 57 L 55 7 C 55 5.347656 53.652344 4 52 4 Z M 23 6 L 52 6 C 52.550781 6 53 6.449219 53 7 L 53 57 C 53 57.550781 52.550781 58 52 58 L 12 58 C 11.449219 58 11 57.550781 11 57 L 11 18 L 20 18 C 21.652344 18 23 16.652344 23 15 Z M 21 6.5 L 21 15 C 21 15.550781 20.550781 16 20 16 L 11.5 16 C 11.605469 15.835938 11.734375 15.679688 11.878906 15.535156 L 20.535156 6.878906 C 20.679688 6.738281 20.835938 6.613281 21 6.5 Z M 35.847656 18.011719 C 35.464844 18.070313 35.128906 18.355469 35.03125 18.757813 L 29.03125 42.757813 C 28.894531 43.292969 29.222656 43.835938 29.757813 43.96875 C 29.839844 43.992188 29.921875 44 30 44 C 30.449219 44 30.855469 43.695313 30.96875 43.242188 L 36.96875 19.242188 C 37.105469 18.707031 36.777344 18.164063 36.242188 18.03125 C 36.109375 17.996094 35.976563 17.992188 35.847656 18.011719 Z M 26 24 C 25.746094 24 25.488281 24.097656 25.292969 24.292969 L 19.292969 30.292969 C 18.902344 30.683594 18.902344 31.316406 19.292969 31.707031 L 25.292969 37.707031 C 25.488281 37.902344 25.742188 38 26 38 C 26.257813 38 26.511719 37.902344 26.707031 37.707031 C 27.097656 37.316406 27.097656 36.683594 26.707031 36.292969 L 21.414063 31 L 26.707031 25.707031 C 27.097656 25.316406 27.097656 24.683594 26.707031 24.292969 C 26.511719 24.097656 26.253906 24 26 24 Z M 40 24 C 39.746094 24 39.488281 24.097656 39.292969 24.292969 C 38.902344 24.683594 38.902344 25.316406 39.292969 25.707031 L 44.585938 31 L 39.292969 36.292969 C 38.902344 36.683594 38.902344 37.316406 39.292969 37.707031 C 39.488281 37.902344 39.742188 38 40 38 C 40.257813 38 40.511719 37.902344 40.707031 37.707031 L 46.707031 31.707031 C 47.097656 31.316406 47.097656 30.683594 46.707031 30.292969 L 40.707031 24.292969 C 40.511719 24.097656 40.253906 24 40 24 Z M 14 50 C 13.449219 50 13 50.449219 13 51 L 13 53 C 13 53.550781 13.449219 54 14 54 C 14.550781 54 15 53.550781 15 53 L 15 51 C 15 50.449219 14.550781 50 14 50 Z M 19 50 C 18.449219 50 18 50.449219 18 51 L 18 53 C 18 53.550781 18.449219 54 19 54 C 19.550781 54 20 53.550781 20 53 L 20 51 C 20 50.449219 19.550781 50 19 50 Z M 24 50 C 23.449219 50 23 50.449219 23 51 L 23 53 C 23 53.550781 23.449219 54 24 54 C 24.550781 54 25 53.550781 25 53 L 25 51 C 25 50.449219 24.550781 50 24 50 Z M 29 50 C 28.449219 50 28 50.449219 28 51 L 28 53 C 28 53.550781 28.449219 54 29 54 C 29.550781 54 30 53.550781 30 53 L 30 51 C 30 50.449219 29.550781 50 29 50 Z M 34 50 C 33.449219 50 33 50.449219 33 51 L 33 53 C 33 53.550781 33.449219 54 34 54 C 34.550781 54 35 53.550781 35 53 L 35 51 C 35 50.449219 34.550781 50 34 50 Z M 39 50 C 38.449219 50 38 50.449219 38 51 L 38 53 C 38 53.550781 38.449219 54 39 54 C 39.550781 54 40 53.550781 40 53 L 40 51 C 40 50.449219 39.550781 50 39 50 Z M 44 50 C 43.449219 50 43 50.449219 43 51 L 43 53 C 43 53.550781 43.449219 54 44 54 C 44.550781 54 45 53.550781 45 53 L 45 51 C 45 50.449219 44.550781 50 44 50 Z M 49 50 C 48.449219 50 48 50.449219 48 51 L 48 53 C 48 53.550781 48.449219 54 49 54 C 49.550781 54 50 53.550781 50 53 L 50 51 C 50 50.449219 49.550781 50 49 50 Z"/></svg>