<svg fill="#000000" xmlns="http://www.w3.org/2000/svg"  viewBox="0 0 64 64" width="64px" height="64px"><path d="M 21.660156 4 C 20.320313 4 19.070313 4.519531 18.121094 5.460938 L 9.460938 14.121094 C 8.519531 15.070313 8 16.320313 8 17.660156 L 8 57 C 8 58.648438 9.351563 60 11 60 L 39.628906 60 C 41.992188 62.460938 45.320313 64 49 64 C 56.171875 64 62 58.171875 62 51 C 62 45.601563 58.691406 40.960938 54 39 L 54 7 C 54 5.351563 52.648438 4 51 4 Z M 22 6 L 36 6 L 36 27.796875 C 35.113281 27.289063 34.089844 27 33 27 C 31.910156 27 30.886719 27.289063 30 27.796875 L 30 9 C 30 8.445313 29.550781 8 29 8 C 28.449219 8 28 8.445313 28 9 L 28 29.671875 C 27.601563 30.265625 27.296875 30.9375 27.125 31.671875 L 25.875 37.097656 C 25.597656 38.292969 25.875 39.53125 26.640625 40.488281 C 27.402344 41.449219 28.546875 42 29.769531 42 L 36.230469 42 C 37.453125 42 38.597656 41.449219 39.359375 40.488281 C 40.121094 39.53125 40.402344 38.292969 40.125 37.097656 L 38.875 31.671875 C 38.703125 30.9375 38.398438 30.265625 38 29.671875 L 38 6 L 51 6 C 51.550781 6 52 6.449219 52 7 L 52 38.347656 C 51.039063 38.121094 50.03125 38 49 38 C 41.828125 38 36 43.828125 36 51 C 36 51.339844 36.011719 51.671875 36.050781 52 L 21 52 C 20.449219 52 20 52.449219 20 53 C 20 53.550781 20.449219 54 21 54 L 36.347656 54 C 36.691406 55.441406 37.269531 56.789063 38.050781 58 L 11 58 C 10.449219 58 10 57.550781 10 57 L 10 18 L 19 18 C 20.652344 18 22 16.652344 22 15 Z M 20 6.5 L 20 15 C 20 15.550781 19.550781 16 19 16 L 10.5 16 C 10.609375 15.835938 10.738281 15.679688 10.878906 15.539063 L 19.539063 6.882813 C 19.679688 6.738281 19.835938 6.613281 20 6.5 Z M 32 8 C 31.585938 8 31.230469 8.253906 31.078125 8.609375 C 31.027344 8.730469 31 8.863281 31 9 C 31 9.136719 31.027344 9.269531 31.078125 9.390625 C 31.230469 9.746094 31.585938 10 32 10 L 34 10 C 34.414063 10 34.769531 9.746094 34.921875 9.390625 C 34.972656 9.269531 35 9.136719 35 9 C 35 8.863281 34.972656 8.730469 34.921875 8.609375 C 34.769531 8.253906 34.414063 8 34 8 Z M 32 13 C 31.585938 13 31.230469 13.253906 31.078125 13.609375 C 31.027344 13.730469 31 13.863281 31 14 C 31 14.136719 31.027344 14.269531 31.078125 14.390625 C 31.230469 14.746094 31.585938 15 32 15 L 34 15 C 34.414063 15 34.769531 14.746094 34.921875 14.390625 C 34.972656 14.269531 35 14.136719 35 14 C 35 13.863281 34.972656 13.730469 34.921875 13.609375 C 34.769531 13.253906 34.414063 13 34 13 Z M 32 18 C 31.585938 18 31.230469 18.253906 31.078125 18.609375 C 31.027344 18.730469 31 18.863281 31 19 C 31 19.136719 31.027344 19.269531 31.078125 19.390625 C 31.230469 19.746094 31.585938 20 32 20 L 34 20 C 34.414063 20 34.769531 19.746094 34.921875 19.390625 C 34.972656 19.269531 35 19.136719 35 19 C 35 18.863281 34.972656 18.730469 34.921875 18.609375 C 34.769531 18.253906 34.414063 18 34 18 Z M 32 23 C 31.585938 23 31.230469 23.253906 31.078125 23.609375 C 31.027344 23.730469 31 23.863281 31 24 C 31 24.136719 31.027344 24.269531 31.078125 24.390625 C 31.230469 24.746094 31.585938 25 32 25 L 34 25 C 34.414063 25 34.769531 24.746094 34.921875 24.390625 C 34.972656 24.269531 35 24.136719 35 24 C 35 23.863281 34.972656 23.730469 34.921875 23.609375 C 34.769531 23.253906 34.414063 23 34 23 Z M 33 29 C 34.886719 29 36.5 30.28125 36.925781 32.121094 L 38.175781 37.550781 C 38.316406 38.148438 38.175781 38.765625 37.796875 39.246094 C 37.414063 39.722656 36.839844 40 36.230469 40 L 29.769531 40 C 29.160156 40 28.585938 39.722656 28.203125 39.246094 C 27.824219 38.765625 27.683594 38.148438 27.824219 37.550781 L 29.074219 32.121094 C 29.5 30.28125 31.113281 29 33 29 Z M 33 32 C 32.449219 32 32 32.445313 32 33 L 32 37 C 32 37.554688 32.449219 38 33 38 C 33.550781 38 34 37.554688 34 37 L 34 33 C 34 32.445313 33.550781 32 33 32 Z M 49 40 C 50.039063 40 51.050781 40.140625 52 40.421875 C 52.699219 40.609375 53.371094 40.878906 54 41.199219 C 57.558594 43.019531 60 46.730469 60 51 C 60 57.070313 55.070313 62 49 62 C 46.640625 62 44.46875 61.261719 42.679688 60 C 41.871094 59.429688 41.140625 58.761719 40.511719 58 C 39.558594 56.839844 38.828125 55.480469 38.421875 54 C 38.230469 53.351563 38.109375 52.679688 38.050781 52 C 38.019531 51.671875 38 51.339844 38 51 C 38 44.929688 42.929688 40 49 40 Z M 49 44 C 48.449219 44 48 44.445313 48 45 L 48 50 L 43 50 C 42.449219 50 42 50.445313 42 51 C 42 51.554688 42.449219 52 43 52 L 48 52 L 48 57 C 48 57.554688 48.449219 58 49 58 C 49.550781 58 50 57.554688 50 57 L 50 52 L 55 52 C 55.550781 52 56 51.554688 56 51 C 56 50.445313 55.550781 50 55 50 L 50 50 L 50 45 C 50 44.445313 49.550781 44 49 44 Z M 13 52 C 12.449219 52 12 52.445313 12 53 C 12 53.554688 12.449219 54 13 54 L 17 54 C 17.550781 54 18 53.554688 18 53 C 18 52.445313 17.550781 52 17 52 Z"/></svg>