<svg fill="#000000" xmlns="http://www.w3.org/2000/svg"  viewBox="0 0 64 64" width="64px" height="64px"><path d="M 17.660156 4 C 16.320313 4 15.058594 4.519531 14.121094 5.460938 L 5.460938 14.121094 C 4.519531 15.070313 4 16.320313 4 17.660156 L 4 57 C 4 58.648438 5.351563 60 7 60 L 47 60 C 48.648438 60 50 58.648438 50 57 L 50 46 L 58 46 C 59.101563 46 60 45.101563 60 44 L 60 24 C 60 22.898438 59.101563 22 58 22 L 50 22 L 50 7 C 50 5.351563 48.648438 4 47 4 Z M 18 6 L 47 6 C 47.550781 6 48 6.449219 48 7 L 48 22 L 16 22 C 14.898438 22 14 22.898438 14 24 L 14 44 C 14 45.101563 14.898438 46 16 46 L 48 46 L 48 57 C 48 57.550781 47.550781 58 47 58 L 7 58 C 6.449219 58 6 57.550781 6 57 L 6 18 L 15 18 C 16.652344 18 18 16.652344 18 15 Z M 16 6.5 L 16 15 C 16 15.550781 15.550781 16 15 16 L 6.5 16 C 6.613281 15.835938 6.738281 15.679688 6.882813 15.539063 L 15.539063 6.882813 C 15.679688 6.738281 15.835938 6.609375 16 6.5 Z M 16 24 L 58 24 L 58 44 L 16 44 Z M 27 28 C 25.347656 28 24 29.347656 24 31 L 24 37 C 24 38.652344 25.347656 40 27 40 L 29 40 C 30.652344 40 32 38.652344 32 37 C 32 36.445313 31.554688 36 31 36 C 30.445313 36 30 36.445313 30 37 C 30 37.550781 29.550781 38 29 38 L 27 38 C 26.449219 38 26 37.550781 26 37 L 26 31 C 26 30.449219 26.449219 30 27 30 L 29 30 C 29.550781 30 30 30.449219 30 31 C 30 31.554688 30.445313 32 31 32 C 31.554688 32 32 31.554688 32 31 C 32 29.347656 30.652344 28 29 28 Z M 37 28 C 35.347656 28 34 29.347656 34 31 L 34 32 C 34 33.652344 35.347656 35 37 35 L 39 35 C 39.550781 35 40 35.449219 40 36 L 40 37 C 40 37.550781 39.550781 38 39 38 L 37 38 C 36.449219 38 36 37.550781 36 37 C 36 36.445313 35.554688 36 35 36 C 34.445313 36 34 36.445313 34 37 C 34 38.652344 35.347656 40 37 40 L 39 40 C 40.652344 40 42 38.652344 42 37 L 42 36 C 42 34.347656 40.652344 33 39 33 L 37 33 C 36.449219 33 36 32.550781 36 32 L 36 31 C 36 30.449219 36.449219 30 37 30 L 39 30 C 39.550781 30 40 30.449219 40 31 C 40 31.554688 40.445313 32 41 32 C 41.554688 32 42 31.554688 42 31 C 42 29.347656 40.652344 28 39 28 Z M 45.109375 28.003906 C 44.980469 27.992188 44.84375 28.003906 44.714844 28.042969 C 44.183594 28.203125 43.886719 28.757813 44.042969 29.285156 L 47.042969 39.285156 C 47.171875 39.710938 47.558594 40 48 40 C 48.441406 40 48.828125 39.710938 48.957031 39.285156 L 51.957031 29.285156 C 52.113281 28.757813 51.816406 28.203125 51.285156 28.042969 C 50.753906 27.886719 50.199219 28.183594 50.042969 28.714844 L 48 35.519531 L 45.957031 28.714844 C 45.835938 28.316406 45.496094 28.046875 45.109375 28.003906 Z M 9 52 C 8.445313 52 8 52.445313 8 53 L 8 55 C 8 55.554688 8.445313 56 9 56 C 9.554688 56 10 55.554688 10 55 L 10 53 C 10 52.445313 9.554688 52 9 52 Z M 14 52 C 13.445313 52 13 52.445313 13 53 L 13 55 C 13 55.554688 13.445313 56 14 56 C 14.554688 56 15 55.554688 15 55 L 15 53 C 15 52.445313 14.554688 52 14 52 Z M 19 52 C 18.445313 52 18 52.445313 18 53 L 18 55 C 18 55.554688 18.445313 56 19 56 C 19.554688 56 20 55.554688 20 55 L 20 53 C 20 52.445313 19.554688 52 19 52 Z M 24 52 C 23.445313 52 23 52.445313 23 53 L 23 55 C 23 55.554688 23.445313 56 24 56 C 24.554688 56 25 55.554688 25 55 L 25 53 C 25 52.445313 24.554688 52 24 52 Z M 29 52 C 28.445313 52 28 52.445313 28 53 L 28 55 C 28 55.554688 28.445313 56 29 56 C 29.554688 56 30 55.554688 30 55 L 30 53 C 30 52.445313 29.554688 52 29 52 Z M 34 52 C 33.445313 52 33 52.445313 33 53 L 33 55 C 33 55.554688 33.445313 56 34 56 C 34.554688 56 35 55.554688 35 55 L 35 53 C 35 52.445313 34.554688 52 34 52 Z M 39 52 C 38.445313 52 38 52.445313 38 53 L 38 55 C 38 55.554688 38.445313 56 39 56 C 39.554688 56 40 55.554688 40 55 L 40 53 C 40 52.445313 39.554688 52 39 52 Z M 44 52 C 43.445313 52 43 52.445313 43 53 L 43 55 C 43 55.554688 43.445313 56 44 56 C 44.554688 56 45 55.554688 45 55 L 45 53 C 45 52.445313 44.554688 52 44 52 Z"/></svg>