<svg fill="#000000" xmlns="http://www.w3.org/2000/svg"  viewBox="0 0 64 64" width="64px" height="64px"><path d="M 17.660156 4 C 16.320313 4 15.058594 4.519531 14.121094 5.460938 L 5.460938 14.121094 C 4.519531 15.070313 4 16.320313 4 17.660156 L 4 57 C 4 58.648438 5.351563 60 7 60 L 47 60 C 48.648438 60 50 58.648438 50 57 L 50 46 L 58 46 C 59.101563 46 60 45.101563 60 44 L 60 24 C 60 22.898438 59.101563 22 58 22 L 50 22 L 50 7 C 50 5.351563 48.648438 4 47 4 Z M 18 6 L 47 6 C 47.550781 6 48 6.449219 48 7 L 48 22 L 16 22 C 14.898438 22 14 22.898438 14 24 L 14 44 C 14 45.101563 14.898438 46 16 46 L 48 46 L 48 57 C 48 57.550781 47.550781 58 47 58 L 7 58 C 6.449219 58 6 57.550781 6 57 L 6 18 L 15 18 C 16.652344 18 18 16.652344 18 15 Z M 16 6.5 L 16 15 C 16 15.550781 15.550781 16 15 16 L 6.5 16 C 6.613281 15.835938 6.738281 15.679688 6.882813 15.539063 L 15.539063 6.882813 C 15.679688 6.738281 15.835938 6.609375 16 6.5 Z M 16 24 L 58 24 L 58 44 L 16 44 Z M 25 28 C 24.445313 28 24 28.445313 24 29 L 24 39 C 24 39.554688 24.445313 40 25 40 L 29 40 C 30.652344 40 32 38.652344 32 37 L 32 31 C 32 29.347656 30.652344 28 29 28 Z M 37 28 C 35.347656 28 34 29.347656 34 31 L 34 37 C 34 38.652344 35.347656 40 37 40 L 39 40 C 40.652344 40 42 38.652344 42 37 L 42 31 C 42 29.347656 40.652344 28 39 28 Z M 47 28 C 45.347656 28 44 29.347656 44 31 L 44 37 C 44 38.652344 45.347656 40 47 40 L 49 40 C 50.652344 40 52 38.652344 52 37 C 52 36.445313 51.554688 36 51 36 C 50.445313 36 50 36.445313 50 37 C 50 37.550781 49.550781 38 49 38 L 47 38 C 46.449219 38 46 37.550781 46 37 L 46 31 C 46 30.449219 46.449219 30 47 30 L 49 30 C 49.550781 30 50 30.449219 50 31 C 50 31.554688 50.445313 32 51 32 C 51.554688 32 52 31.554688 52 31 C 52 29.347656 50.652344 28 49 28 Z M 26 30 L 29 30 C 29.550781 30 30 30.449219 30 31 L 30 37 C 30 37.550781 29.550781 38 29 38 L 26 38 Z M 37 30 L 39 30 C 39.550781 30 40 30.449219 40 31 L 40 37 C 40 37.550781 39.550781 38 39 38 L 37 38 C 36.449219 38 36 37.550781 36 37 L 36 31 C 36 30.449219 36.449219 30 37 30 Z M 9 52 C 8.445313 52 8 52.445313 8 53 L 8 55 C 8 55.554688 8.445313 56 9 56 C 9.554688 56 10 55.554688 10 55 L 10 53 C 10 52.445313 9.554688 52 9 52 Z M 14 52 C 13.445313 52 13 52.445313 13 53 L 13 55 C 13 55.554688 13.445313 56 14 56 C 14.554688 56 15 55.554688 15 55 L 15 53 C 15 52.445313 14.554688 52 14 52 Z M 19 52 C 18.445313 52 18 52.445313 18 53 L 18 55 C 18 55.554688 18.445313 56 19 56 C 19.554688 56 20 55.554688 20 55 L 20 53 C 20 52.445313 19.554688 52 19 52 Z M 24 52 C 23.445313 52 23 52.445313 23 53 L 23 55 C 23 55.554688 23.445313 56 24 56 C 24.554688 56 25 55.554688 25 55 L 25 53 C 25 52.445313 24.554688 52 24 52 Z M 29 52 C 28.445313 52 28 52.445313 28 53 L 28 55 C 28 55.554688 28.445313 56 29 56 C 29.554688 56 30 55.554688 30 55 L 30 53 C 30 52.445313 29.554688 52 29 52 Z M 34 52 C 33.445313 52 33 52.445313 33 53 L 33 55 C 33 55.554688 33.445313 56 34 56 C 34.554688 56 35 55.554688 35 55 L 35 53 C 35 52.445313 34.554688 52 34 52 Z M 39 52 C 38.445313 52 38 52.445313 38 53 L 38 55 C 38 55.554688 38.445313 56 39 56 C 39.554688 56 40 55.554688 40 55 L 40 53 C 40 52.445313 39.554688 52 39 52 Z M 44 52 C 43.445313 52 43 52.445313 43 53 L 43 55 C 43 55.554688 43.445313 56 44 56 C 44.554688 56 45 55.554688 45 55 L 45 53 C 45 52.445313 44.554688 52 44 52 Z"/></svg>