<?xml version="1.0"?><svg fill="#000000" xmlns="http://www.w3.org/2000/svg"  viewBox="0 0 64 64" width="64px" height="64px">    <path d="M 17.65625 4 C 16.32125 4 15.065094 4.5208437 14.121094 5.4648438 L 5.4648438 14.121094 C 4.5208437 15.066094 4 16.32125 4 17.65625 L 4 57 C 4 58.654 5.346 60 7 60 L 47 60 C 48.654 60 50 58.654 50 57 L 50 46 L 58 46 C 59.103 46 60 45.103 60 44 L 60 24 C 60 22.897 59.103 22 58 22 L 50 22 L 50 7 C 50 5.346 48.654 4 47 4 L 17.65625 4 z M 18 6 L 47 6 C 47.551 6 48 6.449 48 7 L 48 22 L 16 22 C 14.897 22 14 22.897 14 24 L 14 44 C 14 45.103 14.897 46 16 46 L 48 46 L 48 57 C 48 57.551 47.551 58 47 58 L 7 58 C 6.449 58 6 57.551 6 57 L 6 18 L 15 18 C 16.654 18 18 16.654 18 15 L 18 6 z M 16 6.5019531 L 16 15 C 16 15.551 15.551 16 15 16 L 6.4980469 16 C 6.6070469 15.835 6.7359063 15.679156 6.8789062 15.535156 L 15.535156 6.8789062 C 15.678156 6.7379062 15.834 6.6119531 16 6.5019531 z M 16 24 L 58 24 L 58 44 L 16 44 L 16 24 z M 25 28 C 24.448 28 24 28.448 24 29 L 24 39 C 24 39.552 24.448 40 25 40 L 30 40 C 30.552 40 31 39.552 31 39 C 31 38.448 30.552 38 30 38 L 26 38 L 26 34 L 29 34 C 29.552 34 30 33.552 30 33 C 30 32.448 29.552 32 29 32 L 26 32 L 26 30 L 30 30 C 30.552 30 31 29.552 31 29 C 31 28.448 30.552 28 30 28 L 25 28 z M 34 28 C 33.448 28 33 28.448 33 29 L 33 39 C 33 39.552 33.448 40 34 40 C 34.552 40 35 39.552 35 39 L 35 36 L 38 36 C 39.654 36 41 34.654 41 33 L 41 31 C 41 29.346 39.654 28 38 28 L 34 28 z M 46 28 C 44.346 28 43 29.346 43 31 L 43 32 C 43 33.654 44.346 35 46 35 L 47 35 C 47.551 35 48 35.449 48 36 L 48 37 C 48 37.551 47.551 38 47 38 L 46 38 C 45.449 38 45 37.551 45 37 C 45 36.448 44.552 36 44 36 C 43.448 36 43 36.448 43 37 C 43 38.654 44.346 40 46 40 L 47 40 C 48.654 40 50 38.654 50 37 L 50 36 C 50 34.346 48.654 33 47 33 L 46 33 C 45.449 33 45 32.551 45 32 L 45 31 C 45 30.449 45.449 30 46 30 L 47 30 C 47.551 30 48 30.449 48 31 C 48 31.552 48.448 32 49 32 C 49.552 32 50 31.552 50 31 C 50 29.346 48.654 28 47 28 L 46 28 z M 35 30 L 38 30 C 38.551 30 39 30.449 39 31 L 39 33 C 39 33.551 38.551 34 38 34 L 35 34 L 35 30 z M 9 52 C 8.448 52 8 52.448 8 53 L 8 55 C 8 55.552 8.448 56 9 56 C 9.552 56 10 55.552 10 55 L 10 53 C 10 52.448 9.552 52 9 52 z M 14 52 C 13.448 52 13 52.448 13 53 L 13 55 C 13 55.552 13.448 56 14 56 C 14.552 56 15 55.552 15 55 L 15 53 C 15 52.448 14.552 52 14 52 z M 19 52 C 18.448 52 18 52.448 18 53 L 18 55 C 18 55.552 18.448 56 19 56 C 19.552 56 20 55.552 20 55 L 20 53 C 20 52.448 19.552 52 19 52 z M 24 52 C 23.448 52 23 52.448 23 53 L 23 55 C 23 55.552 23.448 56 24 56 C 24.552 56 25 55.552 25 55 L 25 53 C 25 52.448 24.552 52 24 52 z M 29 52 C 28.448 52 28 52.448 28 53 L 28 55 C 28 55.552 28.448 56 29 56 C 29.552 56 30 55.552 30 55 L 30 53 C 30 52.448 29.552 52 29 52 z M 34 52 C 33.448 52 33 52.448 33 53 L 33 55 C 33 55.552 33.448 56 34 56 C 34.552 56 35 55.552 35 55 L 35 53 C 35 52.448 34.552 52 34 52 z M 39 52 C 38.448 52 38 52.448 38 53 L 38 55 C 38 55.552 38.448 56 39 56 C 39.552 56 40 55.552 40 55 L 40 53 C 40 52.448 39.552 52 39 52 z M 44 52 C 43.448 52 43 52.448 43 53 L 43 55 C 43 55.552 43.448 56 44 56 C 44.552 56 45 55.552 45 55 L 45 53 C 45 52.448 44.552 52 44 52 z"/></svg>