<svg fill="#000000" xmlns="http://www.w3.org/2000/svg"  viewBox="0 0 64 64" width="64px" height="64px"><path d="M 16.660156 4 C 15.320156 4 14.059141 4.5209375 13.119141 5.4609375 L 4.4609375 14.119141 C 3.5209375 15.069141 3 16.320156 3 17.660156 L 3 57 C 3 58.65 4.35 60 6 60 L 46 60 C 47.65 60 49 58.65 49 57 L 49 46 L 59 46 C 60.1 46 61 45.1 61 44 L 61 24 C 61 22.9 60.1 22 59 22 L 49 22 L 49 7 C 49 5.35 47.65 4 46 4 L 16.660156 4 z M 17 6 L 46 6 C 46.55 6 47 6.45 47 7 L 47 22 L 15 22 C 13.9 22 13 22.9 13 24 L 13 44 C 13 45.1 13.9 46 15 46 L 47 46 L 47 57 C 47 57.55 46.55 58 46 58 L 6 58 C 5.45 58 5 57.55 5 57 L 5 18 L 14 18 C 15.654 18 17 16.654 17 15 L 17 6 z M 15 6.4980469 L 15 15 C 15 15.552 14.552 16 14 16 L 5.5019531 16 C 5.6119531 15.834 5.7388594 15.679063 5.8808594 15.539062 L 14.539062 6.8808594 C 14.681062 6.7368594 14.836 6.6080469 15 6.4980469 z M 15 24 L 47 24 L 49 24 L 59 24 L 59 44 L 49 44 L 47 44 L 15 44 L 15 24 z M 25 28 C 24.447 28 24 28.447 24 29 L 24 39 C 24 39.553 24.447 40 25 40 C 25.553 40 26 39.553 26 39 L 26 36 L 29 36 C 29.553 36 30 35.553 30 35 C 30 34.447 29.553 34 29 34 L 26 34 L 26 30 L 30 30 C 30.553 30 31 29.553 31 29 C 31 28.447 30.553 28 30 28 L 25 28 z M 35 28 C 34.448 28 34 28.448 34 29 L 34 39 C 34 39.552 34.448 40 35 40 L 37 40 C 39.209 40 41 38.209 41 36 C 41 34.687776 40.35901 33.534095 39.382812 32.804688 C 39.764822 32.301283 40 31.680759 40 31 C 40 29.343 38.657 28 37 28 L 35 28 z M 47 28 C 45.346 28 44 29.346 44 31 L 44 32 C 44 32.553 44.448 33 45 33 C 45.552 33 46 32.553 46 32 L 46 31 C 46 30.448 46.449 30 47 30 L 49 30 C 49.551 30 50 30.448 50 31 L 50 32.171875 C 50 32.434875 49.893031 32.692906 49.707031 32.878906 L 44.292969 38.292969 C 44.006969 38.578969 43.921172 39.008813 44.076172 39.382812 C 44.231172 39.756813 44.596 40 45 40 L 51 40 C 51.552 40 52 39.553 52 39 C 52 38.447 51.552 38 51 38 L 47.414062 38 L 51.121094 34.292969 C 51.688094 33.726969 52 32.972875 52 32.171875 L 52 31 C 52 29.346 50.654 28 49 28 L 47 28 z M 36 30 L 37 30 C 37.552 30 38 30.448 38 31 C 38 31.552 37.552 32 37 32 L 36 32 L 36 30 z M 36 34 L 37 34 C 38.105 34 39 34.895 39 36 C 39 37.105 38.105 38 37 38 L 36 38 L 36 34 z M 8 52 C 7.447 52 7 52.447 7 53 L 7 55 C 7 55.553 7.447 56 8 56 C 8.553 56 9 55.553 9 55 L 9 53 C 9 52.447 8.553 52 8 52 z M 13 52 C 12.447 52 12 52.447 12 53 L 12 55 C 12 55.553 12.447 56 13 56 C 13.553 56 14 55.553 14 55 L 14 53 C 14 52.447 13.553 52 13 52 z M 18 52 C 17.447 52 17 52.447 17 53 L 17 55 C 17 55.553 17.447 56 18 56 C 18.553 56 19 55.553 19 55 L 19 53 C 19 52.447 18.553 52 18 52 z M 23 52 C 22.447 52 22 52.447 22 53 L 22 55 C 22 55.553 22.447 56 23 56 C 23.553 56 24 55.553 24 55 L 24 53 C 24 52.447 23.553 52 23 52 z M 28 52 C 27.447 52 27 52.447 27 53 L 27 55 C 27 55.553 27.447 56 28 56 C 28.553 56 29 55.553 29 55 L 29 53 C 29 52.447 28.553 52 28 52 z M 33 52 C 32.447 52 32 52.447 32 53 L 32 55 C 32 55.553 32.447 56 33 56 C 33.553 56 34 55.553 34 55 L 34 53 C 34 52.447 33.553 52 33 52 z M 38 52 C 37.447 52 37 52.447 37 53 L 37 55 C 37 55.553 37.447 56 38 56 C 38.553 56 39 55.553 39 55 L 39 53 C 39 52.447 38.553 52 38 52 z M 43 52 C 42.447 52 42 52.447 42 53 L 42 55 C 42 55.553 42.447 56 43 56 C 43.553 56 44 55.553 44 55 L 44 53 C 44 52.447 43.553 52 43 52 z"/></svg>