<svg fill="#000000" xmlns="http://www.w3.org/2000/svg"  viewBox="0 0 64 64" width="64px" height="64px"><path d="M 17.660156 4 C 16.333156 3.998 15.059141 4.5239375 14.119141 5.4609375 L 5.4609375 14.119141 C 4.5239375 15.059141 3.998 16.333156 4 17.660156 L 4 57 C 4 58.657 5.343 60 7 60 L 47 60 C 48.657 60 50 58.657 50 57 L 50 46 L 58 46 C 59.105 46 60 45.105 60 44 L 60 24 C 60 22.895 59.105 22 58 22 L 50 22 L 50 7 C 50 5.343 48.657 4 47 4 L 17.660156 4 z M 18 6 L 47 6 C 47.552 6 48 6.448 48 7 L 48 22 L 16 22 C 14.895 22 14 22.895 14 24 L 14 44 C 14 45.105 14.895 46 16 46 L 48 46 L 48 57 C 48 57.552 47.552 58 47 58 L 7 58 C 6.448 58 6 57.552 6 57 L 6 18 L 15 18 C 16.657 18 18 16.657 18 15 L 18 6 z M 16 6.5 L 16 15 C 16 15.552 15.552 16 15 16 L 6.5 16 C 6.611 15.834 6.7388594 15.679063 6.8808594 15.539062 L 15.539062 6.8808594 C 15.679063 6.7388594 15.834 6.611 16 6.5 z M 16 24 L 58 24 L 58 44 L 16 44 L 16 24 z M 29 28 C 27.346 28 26 29.346 26 31 L 26 37 C 26 38.654 27.346 40 29 40 L 31 40 C 32.654 40 34 38.654 34 37 L 34 35 C 34 34.447 33.553 34 33 34 L 31 34 C 30.447 34 30 34.447 30 35 C 30 35.553 30.447 36 31 36 L 32 36 L 32 37 C 32 37.552 31.552 38 31 38 L 29 38 C 28.448 38 28 37.552 28 37 L 28 31 C 28 30.448 28.448 30 29 30 L 31 30 C 31.552 30 32 30.448 32 31 C 32 31.553 32.447 32 33 32 C 33.553 32 34 31.553 34 31 C 34 29.346 32.654 28 31 28 L 29 28 z M 38 28 C 37.448 28 37 28.448 37 29 L 37 39 C 37 39.552 37.448 40 38 40 C 38.552 40 39 39.552 39 39 L 39 29 C 39 28.448 38.552 28 38 28 z M 43 28 C 42.448 28 42 28.447 42 29 L 42 39 C 42 39.553 42.448 40 43 40 C 43.552 40 44 39.553 44 39 L 44 36 L 47 36 C 47.552 36 48 35.553 48 35 C 48 34.447 47.552 34 47 34 L 44 34 L 44 30 L 48 30 C 48.552 30 49 29.553 49 29 C 49 28.447 48.552 28 48 28 L 43 28 z M 9 52 C 8.448 52 8 52.448 8 53 L 8 55 C 8 55.552 8.448 56 9 56 C 9.552 56 10 55.552 10 55 L 10 53 C 10 52.448 9.552 52 9 52 z M 14 52 C 13.448 52 13 52.448 13 53 L 13 55 C 13 55.552 13.448 56 14 56 C 14.552 56 15 55.552 15 55 L 15 53 C 15 52.448 14.552 52 14 52 z M 19 52 C 18.448 52 18 52.448 18 53 L 18 55 C 18 55.552 18.448 56 19 56 C 19.552 56 20 55.552 20 55 L 20 53 C 20 52.448 19.552 52 19 52 z M 24 52 C 23.448 52 23 52.448 23 53 L 23 55 C 23 55.552 23.448 56 24 56 C 24.552 56 25 55.552 25 55 L 25 53 C 25 52.448 24.552 52 24 52 z M 29 52 C 28.448 52 28 52.448 28 53 L 28 55 C 28 55.552 28.448 56 29 56 C 29.552 56 30 55.552 30 55 L 30 53 C 30 52.448 29.552 52 29 52 z M 34 52 C 33.448 52 33 52.448 33 53 L 33 55 C 33 55.552 33.448 56 34 56 C 34.552 56 35 55.552 35 55 L 35 53 C 35 52.448 34.552 52 34 52 z M 39 52 C 38.448 52 38 52.448 38 53 L 38 55 C 38 55.552 38.448 56 39 56 C 39.552 56 40 55.552 40 55 L 40 53 C 40 52.448 39.552 52 39 52 z M 44 52 C 43.448 52 43 52.448 43 53 L 43 55 C 43 55.552 43.448 56 44 56 C 44.552 56 45 55.552 45 55 L 45 53 C 45 52.448 44.552 52 44 52 z"/></svg>