<svg fill="#000000" xmlns="http://www.w3.org/2000/svg"  viewBox="0 0 64 64" width="64px" height="64px"><path d="M 23.65625 4 C 22.320313 4 21.0625 4.519531 20.121094 5.464844 L 11.464844 14.121094 C 10.519531 15.066406 10 16.320313 10 17.65625 L 10 57 C 10 58.652344 11.347656 60 13 60 L 53 60 C 54.652344 60 56 58.652344 56 57 L 56 7 C 56 5.347656 54.652344 4 53 4 Z M 24 6 L 53 6 C 53.550781 6 54 6.449219 54 7 L 54 57 C 54 57.550781 53.550781 58 53 58 L 13 58 C 12.449219 58 12 57.550781 12 57 L 12 18 L 21 18 C 22.652344 18 24 16.652344 24 15 Z M 22 6.5 L 22 15 C 22 15.550781 21.550781 16 21 16 L 12.5 16 C 12.613281 15.832031 12.738281 15.675781 12.878906 15.535156 L 21.535156 6.878906 C 21.679688 6.734375 21.835938 6.609375 22 6.5 Z M 31.0625 17.003906 C 30.777344 17.03125 30.496094 17.136719 30.261719 17.324219 C 29.792969 17.691406 29.59375 18.300781 29.75 18.875 C 30.328125 20.957031 30.394531 22.488281 30.191406 24.261719 C 29.714844 23.988281 29.277344 23.785156 28.957031 23.664063 C 28.519531 23.496094 28.023438 23.546875 27.628906 23.800781 C 27.234375 24.058594 26.980469 24.488281 26.953125 24.953125 C 26.828125 27.097656 25.996094 28.445313 25.113281 29.875 C 24.105469 31.507813 22.964844 33.359375 22.964844 36.410156 C 22.964844 39.429688 24.15625 42.242188 26.328125 44.339844 C 28.402344 46.339844 31.105469 47.429688 33.972656 47.429688 C 34.109375 47.429688 34.246094 47.425781 34.378906 47.421875 C 40.238281 47.214844 45 42.164063 45 36.171875 L 45 35.90625 C 45 32.972656 44.332031 30.160156 43.011719 27.546875 C 42.78125 27.089844 42.53125 26.648438 42.265625 26.214844 C 41.921875 25.652344 41.265625 25.394531 40.628906 25.5625 C 40.09375 25.707031 39.714844 26.128906 39.589844 26.644531 C 38.535156 22.792969 35.867188 19.378906 31.898438 17.1875 C 31.636719 17.042969 31.347656 16.980469 31.0625 17.003906 Z M 31.980469 19.570313 C 37.007813 22.882813 39.230469 28.589844 37.53125 34.113281 C 37.371094 34.640625 37.667969 35.199219 38.195313 35.363281 C 38.292969 35.394531 38.394531 35.40625 38.488281 35.40625 C 38.917969 35.40625 39.3125 35.132813 39.445313 34.703125 C 39.699219 33.878906 39.871094 33.054688 39.980469 32.234375 C 40.625 31.277344 41.105469 30.03125 41.347656 28.703125 C 42.445313 30.960938 43 33.386719 43 35.90625 L 43 36.171875 C 43 41.101563 39.101563 45.25 34.3125 45.421875 C 31.835938 45.5 29.5 44.613281 27.71875 42.902344 C 25.945313 41.183594 24.964844 38.878906 24.964844 36.410156 C 24.964844 33.929688 25.863281 32.472656 26.816406 30.925781 C 27.65625 29.570313 28.59375 28.046875 28.882813 25.816406 C 29.945313 26.347656 31.246094 27.335938 31.484375 29.039063 C 31.5625 29.585938 32.066406 29.960938 32.621094 29.890625 C 33.164063 29.8125 33.546875 29.304688 33.46875 28.753906 C 33.285156 27.46875 32.707031 26.484375 32.015625 25.71875 C 32.355469 23.558594 32.445313 21.796875 31.980469 19.570313 Z M 15 52 C 14.445313 52 14 52.445313 14 53 L 14 55 C 14 55.554688 14.445313 56 15 56 C 15.554688 56 16 55.554688 16 55 L 16 53 C 16 52.445313 15.554688 52 15 52 Z M 20 52 C 19.445313 52 19 52.445313 19 53 L 19 55 C 19 55.554688 19.445313 56 20 56 C 20.554688 56 21 55.554688 21 55 L 21 53 C 21 52.445313 20.554688 52 20 52 Z M 25 52 C 24.445313 52 24 52.445313 24 53 L 24 55 C 24 55.554688 24.445313 56 25 56 C 25.554688 56 26 55.554688 26 55 L 26 53 C 26 52.445313 25.554688 52 25 52 Z M 30 52 C 29.445313 52 29 52.445313 29 53 L 29 55 C 29 55.554688 29.445313 56 30 56 C 30.554688 56 31 55.554688 31 55 L 31 53 C 31 52.445313 30.554688 52 30 52 Z M 35 52 C 34.445313 52 34 52.445313 34 53 L 34 55 C 34 55.554688 34.445313 56 35 56 C 35.554688 56 36 55.554688 36 55 L 36 53 C 36 52.445313 35.554688 52 35 52 Z M 40 52 C 39.445313 52 39 52.445313 39 53 L 39 55 C 39 55.554688 39.445313 56 40 56 C 40.554688 56 41 55.554688 41 55 L 41 53 C 41 52.445313 40.554688 52 40 52 Z M 45 52 C 44.445313 52 44 52.445313 44 53 L 44 55 C 44 55.554688 44.445313 56 45 56 C 45.554688 56 46 55.554688 46 55 L 46 53 C 46 52.445313 45.554688 52 45 52 Z M 50 52 C 49.445313 52 49 52.445313 49 53 L 49 55 C 49 55.554688 49.445313 56 50 56 C 50.554688 56 51 55.554688 51 55 L 51 53 C 51 52.445313 50.554688 52 50 52 Z"/></svg>