<?xml version="1.0"?><svg fill="#000000" xmlns="http://www.w3.org/2000/svg"  viewBox="0 0 64 64" width="64px" height="64px">    <path d="M 17.660156 4 C 16.320156 4 15.059141 4.5209375 14.119141 5.4609375 L 5.4609375 14.119141 C 4.5209375 15.069141 4 16.320156 4 17.660156 L 4 57 C 4 58.65 5.35 60 7 60 L 47 60 C 48.65 60 50 58.65 50 57 L 50 46 L 58 46 C 59.1 46 60 45.1 60 44 L 60 24 C 60 22.9 59.1 22 58 22 L 50 22 L 50 7 C 50 5.35 48.65 4 47 4 L 17.660156 4 z M 18 6 L 47 6 C 47.55 6 48 6.45 48 7 L 48 22 L 16 22 C 14.9 22 14 22.9 14 24 L 14 44 C 14 45.1 14.9 46 16 46 L 48 46 L 48 57 C 48 57.55 47.55 58 47 58 L 7 58 C 6.45 58 6 57.55 6 57 L 6 18 L 15 18 C 16.654 18 18 16.654 18 15 L 18 6 z M 16 6.4980469 L 16 15 C 16 15.552 15.551 16 15 16 L 6.5019531 16 C 6.6119531 15.834 6.7388594 15.679063 6.8808594 15.539062 L 15.539062 6.8808594 C 15.681062 6.7368594 15.836 6.6080469 16 6.4980469 z M 16 24 L 58 24 L 58 44 L 16 44 L 16 24 z M 29 28 C 28.448 28 28 28.447 28 29 L 28 36 C 28 37.103 27.103 38 26 38 C 24.897 38 24 37.103 24 36 C 24 35.447 23.552 35 23 35 C 22.448 35 22 35.447 22 36 C 22 38.206 23.794 40 26 40 C 28.206 40 30 38.206 30 36 L 30 29 C 30 28.447 29.552 28 29 28 z M 36 28 C 34.346 28 33 29.346 33 31 L 33 32 C 33 32.553 33.448 33 34 33 C 34.552 33 35 32.553 35 32 L 35 31 C 35 30.448 35.449 30 36 30 L 38 30 C 38.551 30 39 30.448 39 31 L 39 32.171875 C 39 32.434875 38.893031 32.692906 38.707031 32.878906 L 33.292969 38.292969 C 33.006969 38.578969 32.921172 39.008813 33.076172 39.382812 C 33.231172 39.756813 33.596 40 34 40 L 40 40 C 40.552 40 41 39.553 41 39 C 41 38.447 40.552 38 40 38 L 36.414062 38 L 40.121094 34.292969 C 40.688094 33.726969 41 32.972875 41 32.171875 L 41 31 C 41 29.346 39.654 28 38 28 L 36 28 z M 45 28 C 44.448 28 44 28.447 44 29 L 44 39 C 44 39.553 44.448 40 45 40 C 45.552 40 46 39.553 46 39 L 46 35.414062 L 47.445312 33.96875 L 51.167969 39.554688 C 51.360969 39.844687 51.678953 40 52.001953 40 C 52.191953 40 52.383688 39.945031 52.554688 39.832031 C 53.013688 39.525031 53.138031 38.905313 52.832031 38.445312 L 48.886719 32.527344 L 51.707031 29.707031 C 52.098031 29.316031 52.098031 28.683969 51.707031 28.292969 C 51.316031 27.901969 50.683969 27.901969 50.292969 28.292969 L 46 32.585938 L 46 29 C 46 28.447 45.552 28 45 28 z M 9 52 C 8.448 52 8 52.447 8 53 L 8 55 C 8 55.553 8.448 56 9 56 C 9.552 56 10 55.553 10 55 L 10 53 C 10 52.447 9.552 52 9 52 z M 14 52 C 13.448 52 13 52.447 13 53 L 13 55 C 13 55.553 13.448 56 14 56 C 14.552 56 15 55.553 15 55 L 15 53 C 15 52.447 14.552 52 14 52 z M 19 52 C 18.448 52 18 52.447 18 53 L 18 55 C 18 55.553 18.448 56 19 56 C 19.552 56 20 55.553 20 55 L 20 53 C 20 52.447 19.552 52 19 52 z M 24 52 C 23.448 52 23 52.447 23 53 L 23 55 C 23 55.553 23.448 56 24 56 C 24.552 56 25 55.553 25 55 L 25 53 C 25 52.447 24.552 52 24 52 z M 29 52 C 28.448 52 28 52.447 28 53 L 28 55 C 28 55.553 28.448 56 29 56 C 29.552 56 30 55.553 30 55 L 30 53 C 30 52.447 29.552 52 29 52 z M 34 52 C 33.448 52 33 52.447 33 53 L 33 55 C 33 55.553 33.448 56 34 56 C 34.552 56 35 55.553 35 55 L 35 53 C 35 52.447 34.552 52 34 52 z M 39 52 C 38.448 52 38 52.447 38 53 L 38 55 C 38 55.553 38.448 56 39 56 C 39.552 56 40 55.553 40 55 L 40 53 C 40 52.447 39.552 52 39 52 z M 44 52 C 43.448 52 43 52.447 43 53 L 43 55 C 43 55.553 43.448 56 44 56 C 44.552 56 45 55.553 45 55 L 45 53 C 45 52.447 44.552 52 44 52 z"/></svg>