<svg fill="#000000" xmlns="http://www.w3.org/2000/svg"  viewBox="0 0 64 64" width="64px" height="64px"><path d="M 17.660156 4 C 16.333156 3.998 15.059141 4.5239375 14.119141 5.4609375 L 5.4609375 14.119141 C 4.5239375 15.059141 3.998 16.333156 4 17.660156 L 4 57 C 4 58.657 5.343 60 7 60 L 47 60 C 48.657 60 50 58.657 50 57 L 50 46 L 58 46 C 59.105 46 60 45.105 60 44 L 60 24 C 60 22.895 59.105 22 58 22 L 50 22 L 50 7 C 50 5.343 48.657 4 47 4 L 17.660156 4 z M 18 6 L 47 6 C 47.552 6 48 6.448 48 7 L 48 22 L 16 22 C 14.895 22 14 22.895 14 24 L 14 44 C 14 45.105 14.895 46 16 46 L 48 46 L 48 57 C 48 57.552 47.552 58 47 58 L 7 58 C 6.448 58 6 57.552 6 57 L 6 18 L 15 18 C 16.657 18 18 16.657 18 15 L 18 6 z M 16 6.5 L 16 15 C 16 15.552 15.552 16 15 16 L 6.5 16 C 6.611 15.834 6.7388594 15.679063 6.8808594 15.539062 L 15.539062 6.8808594 C 15.679063 6.7388594 15.834 6.611 16 6.5 z M 16 24 L 58 24 L 58 44 L 16 44 L 16 24 z M 29 28 C 28.448 28 28 28.447 28 29 L 28 36 C 28 37.103 27.103 38 26 38 C 24.897 38 24 37.103 24 36 C 24 35.447 23.552 35 23 35 C 22.448 35 22 35.447 22 36 C 22 38.206 23.794 40 26 40 C 28.206 40 30 38.206 30 36 L 30 29 C 30 28.447 29.552 28 29 28 z M 33 28 C 32.448 28 32 28.448 32 29 L 32 39 C 32 39.552 32.448 40 33 40 C 33.552 40 34 39.552 34 39 L 34 36 L 37 36 C 38.657 36 40 34.657 40 33 L 40 31 C 40 29.343 38.657 28 37 28 L 33 28 z M 45 28 C 43.346 28 42 29.346 42 31 L 42 37 C 42 38.654 43.346 40 45 40 L 47 40 C 48.654 40 50 38.654 50 37 L 50 35 C 50 34.447 49.553 34 49 34 L 47 34 C 46.447 34 46 34.447 46 35 C 46 35.553 46.447 36 47 36 L 48 36 L 48 37 C 48 37.552 47.552 38 47 38 L 45 38 C 44.448 38 44 37.552 44 37 L 44 31 C 44 30.448 44.448 30 45 30 L 47 30 C 47.552 30 48 30.448 48 31 C 48 31.553 48.447 32 49 32 C 49.553 32 50 31.553 50 31 C 50 29.346 48.654 28 47 28 L 45 28 z M 34 30 L 37 30 C 37.552 30 38 30.448 38 31 L 38 33 C 38 33.552 37.552 34 37 34 L 34 34 L 34 30 z M 9 52 C 8.448 52 8 52.448 8 53 L 8 55 C 8 55.552 8.448 56 9 56 C 9.552 56 10 55.552 10 55 L 10 53 C 10 52.448 9.552 52 9 52 z M 14 52 C 13.448 52 13 52.448 13 53 L 13 55 C 13 55.552 13.448 56 14 56 C 14.552 56 15 55.552 15 55 L 15 53 C 15 52.448 14.552 52 14 52 z M 19 52 C 18.448 52 18 52.448 18 53 L 18 55 C 18 55.552 18.448 56 19 56 C 19.552 56 20 55.552 20 55 L 20 53 C 20 52.448 19.552 52 19 52 z M 24 52 C 23.448 52 23 52.448 23 53 L 23 55 C 23 55.552 23.448 56 24 56 C 24.552 56 25 55.552 25 55 L 25 53 C 25 52.448 24.552 52 24 52 z M 29 52 C 28.448 52 28 52.448 28 53 L 28 55 C 28 55.552 28.448 56 29 56 C 29.552 56 30 55.552 30 55 L 30 53 C 30 52.448 29.552 52 29 52 z M 34 52 C 33.448 52 33 52.448 33 53 L 33 55 C 33 55.552 33.448 56 34 56 C 34.552 56 35 55.552 35 55 L 35 53 C 35 52.448 34.552 52 34 52 z M 39 52 C 38.448 52 38 52.448 38 53 L 38 55 C 38 55.552 38.448 56 39 56 C 39.552 56 40 55.552 40 55 L 40 53 C 40 52.448 39.552 52 39 52 z M 44 52 C 43.448 52 43 52.448 43 53 L 43 55 C 43 55.552 43.448 56 44 56 C 44.552 56 45 55.552 45 55 L 45 53 C 45 52.448 44.552 52 44 52 z"/></svg>