<svg fill="#000000" xmlns="http://www.w3.org/2000/svg"  viewBox="0 0 64 64" width="64px" height="64px"><path d="M 17.65625 4 C 16.320313 4 15.066406 4.519531 14.121094 5.464844 L 5.464844 14.121094 C 4.519531 15.066406 4 16.320313 4 17.65625 L 4 57 C 4 58.652344 5.347656 60 7 60 L 47 60 C 48.652344 60 50 58.652344 50 57 L 50 46 L 58 46 C 59.101563 46 60 45.101563 60 44 L 60 24 C 60 22.898438 59.101563 22 58 22 L 50 22 L 50 7 C 50 5.347656 48.652344 4 47 4 Z M 18 6 L 47 6 C 47.550781 6 48 6.449219 48 7 L 48 22 L 16 22 C 14.898438 22 14 22.898438 14 24 L 14 44 C 14 45.101563 14.898438 46 16 46 L 48 46 L 48 57 C 48 57.550781 47.550781 58 47 58 L 7 58 C 6.449219 58 6 57.550781 6 57 L 6 18 L 15 18 C 16.652344 18 18 16.652344 18 15 Z M 16 6.5 L 16 15 C 16 15.550781 15.550781 16 15 16 L 6.5 16 C 6.609375 15.835938 6.734375 15.679688 6.878906 15.535156 L 15.535156 6.878906 C 15.679688 6.734375 15.835938 6.609375 16 6.5 Z M 16 24 L 58 24 L 58 44 L 16 44 Z M 27 28 C 26.445313 28 26 28.449219 26 29 L 26 35.390625 L 21.859375 28.484375 C 21.628906 28.101563 21.164063 27.917969 20.734375 28.035156 C 20.300781 28.15625 20 28.550781 20 29 L 20 39 C 20 39.550781 20.445313 40 21 40 C 21.554688 40 22 39.550781 22 39 L 22 32.609375 L 26.140625 39.515625 C 26.324219 39.820313 26.65625 40 27 40 C 27.089844 40 27.179688 39.988281 27.265625 39.964844 C 27.699219 39.84375 28 39.449219 28 39 L 28 29 C 28 28.449219 27.554688 28 27 28 Z M 41 28 C 40.445313 28 40 28.449219 40 29 L 40 39 C 40 39.550781 40.445313 40 41 40 L 45 40 C 45.554688 40 46 39.550781 46 39 C 46 38.449219 45.554688 38 45 38 L 42 38 L 42 34 L 44 34 C 44.554688 34 45 33.550781 45 33 C 45 32.449219 44.554688 32 44 32 L 42 32 L 42 30 L 45 30 C 45.554688 30 46 29.550781 46 29 C 46 28.449219 45.554688 28 45 28 Z M 51 28 C 50.558594 28 50.171875 28.289063 50.042969 28.714844 L 47.042969 38.714844 C 46.886719 39.242188 47.183594 39.796875 47.714844 39.957031 C 48.242188 40.117188 48.796875 39.816406 48.957031 39.285156 L 49.34375 38 L 52.65625 38 L 53.042969 39.285156 C 53.171875 39.722656 53.570313 40 54 40 C 54.09375 40 54.191406 39.984375 54.285156 39.957031 C 54.816406 39.796875 55.113281 39.242188 54.957031 38.714844 L 51.957031 28.714844 C 51.828125 28.289063 51.441406 28 51 28 Z M 31.109375 28.003906 C 30.996094 27.992188 30.882813 28 30.769531 28.027344 C 30.320313 28.132813 30 28.535156 30 29 L 30 39 C 30 39.550781 30.445313 40 31 40 C 31.554688 40 32 39.550781 32 39 L 32 33.234375 L 33.105469 35.449219 C 33.445313 36.125 34.554688 36.125 34.894531 35.449219 L 36 33.234375 L 36 39 C 36 39.550781 36.445313 40 37 40 C 37.554688 40 38 39.550781 38 39 L 38 29 C 38 28.535156 37.679688 28.132813 37.230469 28.027344 C 36.78125 27.921875 36.3125 28.136719 36.105469 28.550781 L 34 32.765625 L 31.894531 28.550781 C 31.738281 28.242188 31.4375 28.042969 31.109375 28.003906 Z M 51 32.480469 L 52.058594 36 L 49.941406 36 Z M 9 52 C 8.445313 52 8 52.449219 8 53 L 8 55 C 8 55.550781 8.445313 56 9 56 C 9.554688 56 10 55.550781 10 55 L 10 53 C 10 52.449219 9.554688 52 9 52 Z M 14 52 C 13.445313 52 13 52.449219 13 53 L 13 55 C 13 55.550781 13.445313 56 14 56 C 14.554688 56 15 55.550781 15 55 L 15 53 C 15 52.449219 14.554688 52 14 52 Z M 19 52 C 18.445313 52 18 52.449219 18 53 L 18 55 C 18 55.550781 18.445313 56 19 56 C 19.554688 56 20 55.550781 20 55 L 20 53 C 20 52.449219 19.554688 52 19 52 Z M 24 52 C 23.445313 52 23 52.449219 23 53 L 23 55 C 23 55.550781 23.445313 56 24 56 C 24.554688 56 25 55.550781 25 55 L 25 53 C 25 52.449219 24.554688 52 24 52 Z M 29 52 C 28.445313 52 28 52.449219 28 53 L 28 55 C 28 55.550781 28.445313 56 29 56 C 29.554688 56 30 55.550781 30 55 L 30 53 C 30 52.449219 29.554688 52 29 52 Z M 34 52 C 33.445313 52 33 52.449219 33 53 L 33 55 C 33 55.550781 33.445313 56 34 56 C 34.554688 56 35 55.550781 35 55 L 35 53 C 35 52.449219 34.554688 52 34 52 Z M 39 52 C 38.445313 52 38 52.449219 38 53 L 38 55 C 38 55.550781 38.445313 56 39 56 C 39.554688 56 40 55.550781 40 55 L 40 53 C 40 52.449219 39.554688 52 39 52 Z M 44 52 C 43.445313 52 43 52.449219 43 53 L 43 55 C 43 55.550781 43.445313 56 44 56 C 44.554688 56 45 55.550781 45 55 L 45 53 C 45 52.449219 44.554688 52 44 52 Z"/></svg>