<svg fill="#000000" xmlns="http://www.w3.org/2000/svg"  viewBox="0 0 64 64" width="64px" height="64px"><path d="M 21.65625 4 C 20.320313 4 19.066406 4.519531 18.121094 5.464844 L 9.464844 14.121094 C 8.519531 15.066406 8 16.320313 8 17.65625 L 8 57 C 8 58.652344 9.347656 60 11 60 L 51 60 C 52.652344 60 54 58.652344 54 57 L 54 7 C 54 5.347656 52.652344 4 51 4 Z M 22 6 L 51 6 C 51.550781 6 52 6.449219 52 7 L 52 11.585938 L 49.050781 14.53125 L 48.300781 13.78125 C 47.910156 13.390625 47.28125 13.390625 46.890625 13.78125 C 46.496094 14.175781 46.496094 14.804688 46.890625 15.199219 L 47.640625 15.949219 L 45.515625 18.066406 L 44.765625 17.316406 C 44.375 16.925781 43.746094 16.925781 43.355469 17.316406 C 42.960938 17.710938 42.960938 18.339844 43.355469 18.734375 L 44.105469 19.484375 L 41.984375 21.605469 L 41.234375 20.855469 C 40.839844 20.460938 40.210938 20.460938 39.816406 20.855469 C 39.425781 21.246094 39.425781 21.875 39.816406 22.265625 L 40.566406 23.015625 L 38.449219 25.140625 L 37.699219 24.390625 C 37.304688 23.996094 36.675781 23.996094 36.28125 24.390625 C 35.890625 24.78125 35.890625 25.410156 36.28125 25.800781 L 37.03125 26.550781 L 35.027344 28.558594 C 33.953125 27.589844 32.542969 27 31 27 C 29.457031 27 28.046875 27.589844 26.972656 28.558594 L 24.96875 26.550781 L 25.71875 25.800781 C 26.109375 25.410156 26.109375 24.78125 25.71875 24.390625 C 25.324219 23.996094 24.695313 23.996094 24.300781 24.390625 L 23.550781 25.140625 L 21.433594 23.015625 L 22.183594 22.265625 C 22.574219 21.875 22.574219 21.246094 22.183594 20.855469 C 21.789063 20.460938 21.160156 20.460938 20.765625 20.855469 L 20.015625 21.605469 L 16.414063 18 L 19 18 C 20.652344 18 22 16.652344 22 15 Z M 20 6.5 L 20 15 C 20 15.550781 19.550781 16 19 16 L 10.5 16 C 10.605469 15.835938 10.734375 15.679688 10.878906 15.535156 L 19.535156 6.878906 C 19.679688 6.738281 19.835938 6.613281 20 6.5 Z M 52 14.414063 L 52 57 C 52 57.550781 51.550781 58 51 58 L 11 58 C 10.449219 58 10 57.550781 10 57 L 10 18 L 13.585938 18 L 25.726563 30.140625 C 25.46875 30.617188 25.253906 31.121094 25.125 31.671875 L 23.875 37.097656 C 23.597656 38.292969 23.875 39.53125 24.640625 40.488281 C 25.402344 41.449219 26.546875 42 27.769531 42 L 34.230469 42 C 35.453125 42 36.597656 41.449219 37.359375 40.488281 C 38.121094 39.53125 38.402344 38.292969 38.125 37.097656 L 36.875 31.671875 C 36.746094 31.121094 36.53125 30.617188 36.273438 30.140625 Z M 31 29 C 32.886719 29 34.5 30.28125 34.925781 32.121094 L 36.175781 37.550781 C 36.316406 38.148438 36.175781 38.765625 35.796875 39.246094 C 35.414063 39.722656 34.839844 40 34.230469 40 L 27.769531 40 C 27.160156 40 26.585938 39.722656 26.203125 39.246094 C 25.824219 38.765625 25.683594 38.148438 25.824219 37.550781 L 27.074219 32.121094 C 27.5 30.28125 29.113281 29 31 29 Z M 31 32 C 30.449219 32 30 32.449219 30 33 L 30 37 C 30 37.550781 30.449219 38 31 38 C 31.550781 38 32 37.550781 32 37 L 32 33 C 32 32.449219 31.550781 32 31 32 Z M 13 52 C 12.449219 52 12 52.449219 12 53 C 12 53.550781 12.449219 54 13 54 L 17 54 C 17.550781 54 18 53.550781 18 53 C 18 52.449219 17.550781 52 17 52 Z M 21 52 C 20.449219 52 20 52.449219 20 53 C 20 53.550781 20.449219 54 21 54 L 49 54 C 49.550781 54 50 53.550781 50 53 C 50 52.449219 49.550781 52 49 52 Z"/></svg>