<svg fill="#000000" xmlns="http://www.w3.org/2000/svg"  viewBox="0 0 64 64" width="64px" height="64px"><path d="M 23.65625 4 C 22.320313 4 21.0625 4.519531 20.121094 5.464844 L 11.464844 14.121094 C 10.519531 15.066406 10 16.320313 10 17.65625 L 10 57 C 10 58.652344 11.347656 60 13 60 L 53 60 C 54.652344 60 56 58.652344 56 57 L 56 7 C 56 5.347656 54.652344 4 53 4 Z M 24 6 L 53 6 C 53.550781 6 54 6.449219 54 7 L 54 57 C 54 57.550781 53.550781 58 53 58 L 13 58 C 12.449219 58 12 57.550781 12 57 L 12 18 L 21 18 C 22.652344 18 24 16.652344 24 15 Z M 22 6.5 L 22 15 C 22 15.550781 21.550781 16 21 16 L 12.5 16 C 12.613281 15.835938 12.738281 15.675781 12.878906 15.535156 L 21.535156 6.878906 C 21.679688 6.734375 21.835938 6.609375 22 6.5 Z M 28.683594 18.1875 C 28.542969 18.175781 28.394531 18.175781 28.246094 18.191406 C 27.34375 18.292969 26.855469 18.734375 26.601563 19.089844 C 26.027344 19.886719 26.195313 20.824219 26.25 21.066406 C 26.808594 23.03125 27.609375 25 28.589844 26.90625 C 28.046875 31.8125 26.503906 36.429688 24.078125 40.441406 C 22.273438 41.234375 20.5625 42.167969 18.964844 43.230469 C 18.515625 43.515625 17.988281 44.167969 17.988281 45.0625 C 17.996094 46.269531 19.042969 47.253906 20.328125 47.261719 L 20.34375 47.261719 C 21.277344 47.261719 21.902344 46.65625 22.035156 46.515625 C 23.300781 45.125 24.4375 43.625 25.441406 42.03125 C 29.550781 40.316406 34.117188 39.363281 38.777344 39.28125 C 41.046875 40.957031 43.347656 42.039063 45.4375 42.269531 C 47.738281 42.453125 48.101563 40.917969 48.160156 40.449219 C 48.164063 40.410156 48.167969 40.367188 48.167969 40.328125 C 48.167969 38.746094 47.195313 38.128906 46.3125 37.871094 C 44.734375 37.519531 41.921875 37.273438 39.464844 37.269531 C 36.199219 34.683594 32.941406 30.726563 30.640625 26.480469 C 30.753906 25.300781 30.808594 24.109375 30.808594 22.90625 C 30.808594 22.117188 30.785156 21.316406 30.734375 20.511719 C 30.71875 20.3125 30.601563 19.28125 29.828125 18.640625 C 29.5 18.375 29.109375 18.21875 28.683594 18.1875 Z M 28.550781 20.183594 C 28.617188 20.222656 28.71875 20.472656 28.738281 20.65625 C 28.777344 21.253906 28.796875 21.859375 28.804688 22.464844 C 28.574219 21.839844 28.367188 21.214844 28.191406 20.59375 C 28.171875 20.488281 28.179688 20.3125 28.222656 20.253906 C 28.238281 20.234375 28.316406 20.195313 28.550781 20.183594 Z M 30.195313 29.730469 C 32.007813 32.628906 34.191406 35.273438 36.484375 37.386719 C 33.210938 37.632813 30.003906 38.285156 26.984375 39.3125 C 28.496094 36.339844 29.578125 33.113281 30.195313 29.730469 Z M 42.800781 39.410156 C 44.003906 39.507813 45.09375 39.648438 45.8125 39.808594 C 46.082031 39.886719 46.152344 39.917969 46.164063 40.230469 C 46.105469 40.253906 45.945313 40.300781 45.621094 40.277344 C 44.730469 40.179688 43.78125 39.878906 42.800781 39.410156 Z M 21.625 43.929688 C 21.285156 44.34375 20.933594 44.753906 20.574219 45.152344 C 20.566406 45.15625 20.429688 45.261719 20.34375 45.261719 C 20.148438 45.257813 19.988281 45.125 19.988281 45.058594 C 19.988281 44.972656 20.039063 44.921875 20.050781 44.90625 C 20.566406 44.566406 21.089844 44.242188 21.625 43.929688 Z M 15 52 C 14.449219 52 14 52.445313 14 53 L 14 55 C 14 55.554688 14.449219 56 15 56 C 15.550781 56 16 55.554688 16 55 L 16 53 C 16 52.445313 15.550781 52 15 52 Z M 20 52 C 19.449219 52 19 52.445313 19 53 L 19 55 C 19 55.554688 19.449219 56 20 56 C 20.550781 56 21 55.554688 21 55 L 21 53 C 21 52.445313 20.550781 52 20 52 Z M 25 52 C 24.449219 52 24 52.445313 24 53 L 24 55 C 24 55.554688 24.449219 56 25 56 C 25.550781 56 26 55.554688 26 55 L 26 53 C 26 52.445313 25.550781 52 25 52 Z M 30 52 C 29.449219 52 29 52.445313 29 53 L 29 55 C 29 55.554688 29.449219 56 30 56 C 30.550781 56 31 55.554688 31 55 L 31 53 C 31 52.445313 30.550781 52 30 52 Z M 35 52 C 34.449219 52 34 52.445313 34 53 L 34 55 C 34 55.554688 34.449219 56 35 56 C 35.550781 56 36 55.554688 36 55 L 36 53 C 36 52.445313 35.550781 52 35 52 Z M 40 52 C 39.449219 52 39 52.445313 39 53 L 39 55 C 39 55.554688 39.449219 56 40 56 C 40.550781 56 41 55.554688 41 55 L 41 53 C 41 52.445313 40.550781 52 40 52 Z M 45 52 C 44.449219 52 44 52.445313 44 53 L 44 55 C 44 55.554688 44.449219 56 45 56 C 45.550781 56 46 55.554688 46 55 L 46 53 C 46 52.445313 45.550781 52 45 52 Z M 50 52 C 49.449219 52 49 52.445313 49 53 L 49 55 C 49 55.554688 49.449219 56 50 56 C 50.550781 56 51 55.554688 51 55 L 51 53 C 51 52.445313 50.550781 52 50 52 Z"/></svg>