<svg fill="#000000" xmlns="http://www.w3.org/2000/svg"  viewBox="0 0 64 64" width="64px" height="64px"><path d="M 17.660156 4 C 16.333156 3.998 15.059141 4.5239375 14.119141 5.4609375 L 5.4609375 14.119141 C 4.5239375 15.059141 3.998 16.333156 4 17.660156 L 4 57 C 4 58.657 5.343 60 7 60 L 47 60 C 48.657 60 50 58.657 50 57 L 50 46 L 58 46 C 59.105 46 60 45.105 60 44 L 60 24 C 60 22.895 59.105 22 58 22 L 50 22 L 50 7 C 50 5.343 48.657 4 47 4 L 17.660156 4 z M 18 6 L 47 6 C 47.552 6 48 6.448 48 7 L 48 22 L 16 22 C 14.895 22 14 22.895 14 24 L 14 44 C 14 45.105 14.895 46 16 46 L 48 46 L 48 57 C 48 57.552 47.552 58 47 58 L 7 58 C 6.448 58 6 57.552 6 57 L 6 18 L 15 18 C 16.657 18 18 16.657 18 15 L 18 6 z M 16 6.5 L 16 15 C 16 15.552 15.552 16 15 16 L 6.5 16 C 6.611 15.834 6.7388594 15.679063 6.8808594 15.539062 L 15.539062 6.8808594 C 15.679063 6.7388594 15.834 6.611 16 6.5 z M 16 24 L 58 24 L 58 44 L 16 44 L 16 24 z M 24 28 C 23.448 28 23 28.448 23 29 L 23 39 C 23 39.552 23.448 40 24 40 C 24.552 40 25 39.552 25 39 L 25 36 L 28 36 C 29.657 36 31 34.657 31 33 L 31 31 C 31 29.343 29.657 28 28 28 L 24 28 z M 40 28 C 39.447 28 39 28.448 39 29 L 39 35.390625 L 34.857422 28.486328 C 34.627422 28.100328 34.162422 27.918109 33.732422 28.037109 C 33.299422 28.156109 33 28.55 33 29 L 33 39 C 33 39.552 33.447 40 34 40 C 34.553 40 35 39.552 35 39 L 35 32.609375 L 39.142578 39.513672 C 39.325578 39.820672 39.655 40 40 40 C 40.089 40 40.179578 39.988844 40.267578 39.964844 C 40.700578 39.844844 41 39.45 41 39 L 41 29 C 41 28.448 40.553 28 40 28 z M 46 28 C 44.346 28 43 29.346 43 31 L 43 37 C 43 38.654 44.346 40 46 40 L 48 40 C 49.654 40 51 38.654 51 37 L 51 35 C 51 34.447 50.553 34 50 34 L 48 34 C 47.447 34 47 34.447 47 35 C 47 35.553 47.447 36 48 36 L 49 36 L 49 37 C 49 37.552 48.552 38 48 38 L 46 38 C 45.448 38 45 37.552 45 37 L 45 31 C 45 30.448 45.448 30 46 30 L 48 30 C 48.552 30 49 30.448 49 31 C 49 31.553 49.447 32 50 32 C 50.553 32 51 31.553 51 31 C 51 29.346 49.654 28 48 28 L 46 28 z M 25 30 L 28 30 C 28.552 30 29 30.448 29 31 L 29 33 C 29 33.552 28.552 34 28 34 L 25 34 L 25 30 z M 9 52 C 8.448 52 8 52.448 8 53 L 8 55 C 8 55.552 8.448 56 9 56 C 9.552 56 10 55.552 10 55 L 10 53 C 10 52.448 9.552 52 9 52 z M 14 52 C 13.448 52 13 52.448 13 53 L 13 55 C 13 55.552 13.448 56 14 56 C 14.552 56 15 55.552 15 55 L 15 53 C 15 52.448 14.552 52 14 52 z M 19 52 C 18.448 52 18 52.448 18 53 L 18 55 C 18 55.552 18.448 56 19 56 C 19.552 56 20 55.552 20 55 L 20 53 C 20 52.448 19.552 52 19 52 z M 24 52 C 23.448 52 23 52.448 23 53 L 23 55 C 23 55.552 23.448 56 24 56 C 24.552 56 25 55.552 25 55 L 25 53 C 25 52.448 24.552 52 24 52 z M 29 52 C 28.448 52 28 52.448 28 53 L 28 55 C 28 55.552 28.448 56 29 56 C 29.552 56 30 55.552 30 55 L 30 53 C 30 52.448 29.552 52 29 52 z M 34 52 C 33.448 52 33 52.448 33 53 L 33 55 C 33 55.552 33.448 56 34 56 C 34.552 56 35 55.552 35 55 L 35 53 C 35 52.448 34.552 52 34 52 z M 39 52 C 38.448 52 38 52.448 38 53 L 38 55 C 38 55.552 38.448 56 39 56 C 39.552 56 40 55.552 40 55 L 40 53 C 40 52.448 39.552 52 39 52 z M 44 52 C 43.448 52 43 52.448 43 53 L 43 55 C 43 55.552 43.448 56 44 56 C 44.552 56 45 55.552 45 55 L 45 53 C 45 52.448 44.552 52 44 52 z"/></svg>