<svg fill="#000000" xmlns="http://www.w3.org/2000/svg"  viewBox="0 0 64 64" width="64px" height="64px"><path d="M 17.660156 4 C 16.320313 4 15.058594 4.519531 14.121094 5.460938 L 5.460938 14.121094 C 4.519531 15.070313 4 16.320313 4 17.660156 L 4 57 C 4 58.648438 5.351563 60 7 60 L 47 60 C 48.648438 60 50 58.648438 50 57 L 50 46 L 58 46 C 59.101563 46 60 45.101563 60 44 L 60 24 C 60 22.898438 59.101563 22 58 22 L 50 22 L 50 7 C 50 5.351563 48.648438 4 47 4 Z M 18 6 L 47 6 C 47.550781 6 48 6.449219 48 7 L 48 22 L 16 22 C 14.898438 22 14 22.898438 14 24 L 14 44 C 14 45.101563 14.898438 46 16 46 L 48 46 L 48 57 C 48 57.550781 47.550781 58 47 58 L 7 58 C 6.449219 58 6 57.550781 6 57 L 6 18 L 15 18 C 16.652344 18 18 16.652344 18 15 Z M 16 6.5 L 16 15 C 16 15.550781 15.550781 16 15 16 L 6.5 16 C 6.613281 15.835938 6.738281 15.679688 6.882813 15.539063 L 15.539063 6.882813 C 15.679688 6.738281 15.835938 6.609375 16 6.5 Z M 16 24 L 58 24 L 58 44 L 16 44 Z M 23 28 C 22.445313 28 22 28.445313 22 29 L 22 39 C 22 39.554688 22.445313 40 23 40 C 23.554688 40 24 39.554688 24 39 L 24 36 L 25.5 36 L 28.199219 39.597656 C 28.394531 39.863281 28.695313 40 29 40 C 29.210938 40 29.417969 39.9375 29.597656 39.800781 C 30.042969 39.46875 30.132813 38.839844 29.800781 38.402344 L 27.890625 35.851563 C 29.109375 35.46875 30 34.34375 30 33 L 30 31 C 30 29.347656 28.652344 28 27 28 Z M 37 28 C 36.558594 28 36.171875 28.289063 36.042969 28.714844 L 33.042969 38.714844 C 32.886719 39.242188 33.183594 39.796875 33.714844 39.957031 C 34.242188 40.113281 34.800781 39.816406 34.957031 39.285156 L 35.34375 38 L 38.65625 38 L 39.042969 39.285156 C 39.171875 39.722656 39.570313 40 40 40 C 40.09375 40 40.191406 39.984375 40.285156 39.957031 C 40.816406 39.796875 41.113281 39.242188 40.957031 38.714844 L 37.957031 28.714844 C 37.828125 28.289063 37.441406 28 37 28 Z M 45 28 C 44.445313 28 44 28.445313 44 29 L 44 39 C 44 39.554688 44.445313 40 45 40 C 45.554688 40 46 39.554688 46 39 L 46 36 L 47.5 36 L 50.199219 39.597656 C 50.394531 39.863281 50.695313 40 51 40 C 51.210938 40 51.417969 39.9375 51.597656 39.800781 C 52.042969 39.46875 52.132813 38.839844 51.800781 38.402344 L 49.890625 35.851563 C 51.109375 35.46875 52 34.34375 52 33 L 52 31 C 52 29.347656 50.652344 28 49 28 Z M 24 30 L 27 30 C 27.550781 30 28 30.449219 28 31 L 28 33 C 28 33.550781 27.550781 34 27 34 L 24 34 Z M 46 30 L 49 30 C 49.550781 30 50 30.449219 50 31 L 50 33 C 50 33.550781 49.550781 34 49 34 L 46 34 Z M 37 32.480469 L 38.058594 36 L 35.941406 36 Z M 9 52 C 8.445313 52 8 52.445313 8 53 L 8 55 C 8 55.554688 8.445313 56 9 56 C 9.554688 56 10 55.554688 10 55 L 10 53 C 10 52.445313 9.554688 52 9 52 Z M 14 52 C 13.445313 52 13 52.445313 13 53 L 13 55 C 13 55.554688 13.445313 56 14 56 C 14.554688 56 15 55.554688 15 55 L 15 53 C 15 52.445313 14.554688 52 14 52 Z M 19 52 C 18.445313 52 18 52.445313 18 53 L 18 55 C 18 55.554688 18.445313 56 19 56 C 19.554688 56 20 55.554688 20 55 L 20 53 C 20 52.445313 19.554688 52 19 52 Z M 24 52 C 23.445313 52 23 52.445313 23 53 L 23 55 C 23 55.554688 23.445313 56 24 56 C 24.554688 56 25 55.554688 25 55 L 25 53 C 25 52.445313 24.554688 52 24 52 Z M 29 52 C 28.445313 52 28 52.445313 28 53 L 28 55 C 28 55.554688 28.445313 56 29 56 C 29.554688 56 30 55.554688 30 55 L 30 53 C 30 52.445313 29.554688 52 29 52 Z M 34 52 C 33.445313 52 33 52.445313 33 53 L 33 55 C 33 55.554688 33.445313 56 34 56 C 34.554688 56 35 55.554688 35 55 L 35 53 C 35 52.445313 34.554688 52 34 52 Z M 39 52 C 38.445313 52 38 52.445313 38 53 L 38 55 C 38 55.554688 38.445313 56 39 56 C 39.554688 56 40 55.554688 40 55 L 40 53 C 40 52.445313 39.554688 52 39 52 Z M 44 52 C 43.445313 52 43 52.445313 43 53 L 43 55 C 43 55.554688 43.445313 56 44 56 C 44.554688 56 45 55.554688 45 55 L 45 53 C 45 52.445313 44.554688 52 44 52 Z"/></svg>