<svg fill="#000000" xmlns="http://www.w3.org/2000/svg"  viewBox="0 0 64 64" width="64px" height="64px"><path d="M 19.660156 4 C 18.320313 4 17.070313 4.519531 16.121094 5.460938 L 7.460938 14.121094 C 6.519531 15.070313 6 16.320313 6 17.660156 L 6 57 C 6 58.648438 7.351563 60 9 60 L 38 60 L 38 61 C 38 62.648438 39.351563 64 41 64 L 61 64 C 62.648438 64 64 62.648438 64 61 L 64 46.828125 C 64 46.03125 63.6875 45.269531 63.121094 44.710938 L 59.289063 40.878906 C 58.730469 40.3125 57.96875 40 57.171875 40 L 52 40 L 52 7 C 52 5.351563 50.648438 4 49 4 Z M 20 6 L 34 6 L 34 27.796875 C 33.113281 27.289063 32.089844 27 31 27 C 29.910156 27 28.886719 27.289063 28 27.796875 L 28 9 C 28 8.449219 27.550781 8 27 8 C 26.449219 8 26 8.449219 26 9 L 26 29.671875 C 25.601563 30.265625 25.296875 30.9375 25.125 31.671875 L 23.875 37.097656 C 23.597656 38.292969 23.875 39.53125 24.640625 40.488281 C 25.402344 41.449219 26.546875 42 27.769531 42 L 34.230469 42 C 35.453125 42 36.597656 41.449219 37.359375 40.488281 C 38.121094 39.53125 38.402344 38.292969 38.125 37.097656 L 36.875 31.671875 C 36.703125 30.933594 36.398438 30.265625 36 29.667969 L 36 6 L 49 6 C 49.550781 6 50 6.449219 50 7 L 50 40 L 41 40 C 39.351563 40 38 41.351563 38 43 L 38 52 L 19 52 C 18.449219 52 18 52.449219 18 53 C 18 53.550781 18.449219 54 19 54 L 38 54 L 38 58 L 9 58 C 8.449219 58 8 57.550781 8 57 L 8 18 L 17 18 C 18.652344 18 20 16.652344 20 15 Z M 18 6.5 L 18 15 C 18 15.550781 17.550781 16 17 16 L 8.5 16 C 8.609375 15.835938 8.738281 15.679688 8.882813 15.539063 L 17.539063 6.882813 C 17.679688 6.738281 17.835938 6.613281 18 6.5 Z M 30 8 C 29.449219 8 29 8.449219 29 9 C 29 9.550781 29.449219 10 30 10 L 32 10 C 32.550781 10 33 9.550781 33 9 C 33 8.449219 32.550781 8 32 8 Z M 30 13 C 29.449219 13 29 13.449219 29 14 C 29 14.550781 29.449219 15 30 15 L 32 15 C 32.550781 15 33 14.550781 33 14 C 33 13.449219 32.550781 13 32 13 Z M 30 18 C 29.449219 18 29 18.449219 29 19 C 29 19.550781 29.449219 20 30 20 L 32 20 C 32.550781 20 33 19.550781 33 19 C 33 18.449219 32.550781 18 32 18 Z M 30 23 C 29.449219 23 29 23.449219 29 24 C 29 24.550781 29.449219 25 30 25 L 32 25 C 32.550781 25 33 24.550781 33 24 C 33 23.449219 32.550781 23 32 23 Z M 31 29 C 32.886719 29 34.5 30.28125 34.925781 32.121094 L 36.175781 37.550781 C 36.316406 38.148438 36.175781 38.765625 35.796875 39.246094 C 35.414063 39.722656 34.839844 40 34.230469 40 L 27.769531 40 C 27.160156 40 26.585938 39.722656 26.203125 39.246094 C 25.824219 38.765625 25.683594 38.148438 25.824219 37.550781 L 27.074219 32.121094 C 27.5 30.28125 29.113281 29 31 29 Z M 31 32 C 30.449219 32 30 32.449219 30 33 L 30 37 C 30 37.550781 30.449219 38 31 38 C 31.550781 38 32 37.550781 32 37 L 32 33 C 32 32.449219 31.550781 32 31 32 Z M 41 42 L 42 42 L 42 47 C 42 48.652344 43.347656 50 45 50 L 55 50 C 56.652344 50 58 48.652344 58 47 L 58 42.410156 L 61.710938 46.121094 C 61.890625 46.308594 62 46.558594 62 46.828125 L 62 61 C 62 61.550781 61.550781 62 61 62 L 60 62 L 60 55 C 60 53.347656 58.652344 52 57 52 L 45 52 C 43.347656 52 42 53.347656 42 55 L 42 62 L 41 62 C 40.449219 62 40 61.550781 40 61 L 40 43 C 40 42.449219 40.449219 42 41 42 Z M 44 42 L 56 42 L 56 47 C 56 47.550781 55.550781 48 55 48 L 45 48 C 44.449219 48 44 47.550781 44 47 Z M 11 52 C 10.449219 52 10 52.449219 10 53 C 10 53.550781 10.449219 54 11 54 L 15 54 C 15.550781 54 16 53.550781 16 53 C 16 52.449219 15.550781 52 15 52 Z M 45 54 L 57 54 C 57.550781 54 58 54.449219 58 55 L 58 62 L 44 62 L 44 55 C 44 54.449219 44.449219 54 45 54 Z M 47 56 C 46.449219 56 46 56.449219 46 57 C 46 57.550781 46.449219 58 47 58 L 54 58 C 54.550781 58 55 57.550781 55 57 C 55 56.449219 54.550781 56 54 56 Z"/></svg>