<svg fill="#000000" xmlns="http://www.w3.org/2000/svg"  viewBox="0 0 64 64" width="64px" height="64px"><path d="M 11 2 C 7.140625 2 4 5.140625 4 9 L 4 51 C 4 54.859375 7.140625 58 11 58 L 53 58 C 56.859375 58 60 54.859375 60 51 L 60 9 C 60 5.140625 56.859375 2 53 2 Z M 11 4 L 53 4 C 55.757813 4 58 6.242188 58 9 L 58 51 C 58 53.757813 55.757813 56 53 56 L 11 56 C 8.242188 56 6 53.757813 6 51 L 6 9 C 6 6.242188 8.242188 4 11 4 Z M 9 8 C 8.445313 8 8 8.445313 8 9 L 8 11 C 8 11.554688 8.445313 12 9 12 C 9.554688 12 10 11.554688 10 11 L 10 9 C 10 8.445313 9.554688 8 9 8 Z M 14 8 C 13.445313 8 13 8.445313 13 9 L 13 11 C 13 11.554688 13.445313 12 14 12 C 14.554688 12 15 11.554688 15 11 L 15 9 C 15 8.445313 14.554688 8 14 8 Z M 19 8 C 18.445313 8 18 8.445313 18 9 L 18 11 C 18 11.554688 18.445313 12 19 12 C 19.554688 12 20 11.554688 20 11 L 20 9 C 20 8.445313 19.554688 8 19 8 Z M 24 8 C 23.445313 8 23 8.445313 23 9 L 23 11 C 23 11.554688 23.445313 12 24 12 C 24.554688 12 25 11.554688 25 11 L 25 9 C 25 8.445313 24.554688 8 24 8 Z M 29 8 C 28.445313 8 28 8.445313 28 9 L 28 11 C 28 11.554688 28.445313 12 29 12 C 29.554688 12 30 11.554688 30 11 L 30 9 C 30 8.445313 29.554688 8 29 8 Z M 34 8 C 33.445313 8 33 8.445313 33 9 L 33 11 C 33 11.554688 33.445313 12 34 12 C 34.554688 12 35 11.554688 35 11 L 35 9 C 35 8.445313 34.554688 8 34 8 Z M 39 8 C 38.445313 8 38 8.445313 38 9 L 38 11 C 38 11.554688 38.445313 12 39 12 C 39.554688 12 40 11.554688 40 11 L 40 9 C 40 8.445313 39.554688 8 39 8 Z M 44 8 C 43.445313 8 43 8.445313 43 9 L 43 11 C 43 11.554688 43.445313 12 44 12 C 44.554688 12 45 11.554688 45 11 L 45 9 C 45 8.445313 44.554688 8 44 8 Z M 49 8 C 48.445313 8 48 8.445313 48 9 L 48 11 C 48 11.554688 48.445313 12 49 12 C 49.554688 12 50 11.554688 50 11 L 50 9 C 50 8.445313 49.554688 8 49 8 Z M 54 8 C 53.445313 8 53 8.445313 53 9 L 53 11 C 53 11.554688 53.445313 12 54 12 C 54.554688 12 55 11.554688 55 11 L 55 9 C 55 8.445313 54.554688 8 54 8 Z M 20.707031 22 C 18.109375 22 16 24.109375 16 26.707031 C 16 28.503906 16.996094 30.117188 18.605469 30.921875 L 22.5 32.871094 C 23.425781 33.332031 24 34.261719 24 35.292969 C 24 36.785156 22.785156 38 21.292969 38 L 20 38 C 18.898438 38 18 37.101563 18 36 L 18 35 C 18 34.445313 17.554688 34 17 34 C 16.445313 34 16 34.445313 16 35 L 16 36 C 16 38.207031 17.792969 40 20 40 L 21.292969 40 C 23.890625 40 26 37.890625 26 35.292969 C 26 33.5 25.003906 31.882813 23.394531 31.078125 L 19.496094 29.128906 C 18.570313 28.667969 18 27.738281 18 26.707031 C 18 25.214844 19.214844 24 20.707031 24 L 22 24 C 23.101563 24 24 24.898438 24 26 L 24 27 C 24 27.554688 24.445313 28 25 28 C 25.554688 28 26 27.554688 26 27 L 26 26 C 26 23.792969 24.207031 22 22 22 Z M 33 22 C 30.242188 22 28 24.242188 28 27 L 28 35 C 28 37.757813 30.242188 40 33 40 C 33.394531 40 33.773438 39.945313 34.140625 39.859375 C 34.511719 41.09375 35.644531 42 37 42 C 37.554688 42 38 41.554688 38 41 C 38 40.445313 37.554688 40 37 40 C 36.449219 40 36 39.550781 36 39 C 36 38.992188 35.996094 38.988281 35.996094 38.980469 C 37.207031 38.066406 38 36.628906 38 35 L 38 27 C 38 24.242188 35.757813 22 33 22 Z M 41 22 C 40.445313 22 40 22.445313 40 23 L 40 39 C 40 39.554688 40.445313 40 41 40 L 49 40 C 49.554688 40 50 39.554688 50 39 C 50 38.445313 49.554688 38 49 38 L 42 38 L 42 23 C 42 22.445313 41.554688 22 41 22 Z M 33 24 C 34.652344 24 36 25.347656 36 27 L 36 35 C 36 36.652344 34.652344 38 33 38 C 31.347656 38 30 36.652344 30 35 L 30 27 C 30 25.347656 31.347656 24 33 24 Z"/></svg>