<svg fill="#000000" xmlns="http://www.w3.org/2000/svg"  viewBox="0 0 64 64" width="64px" height="64px"><path d="M 17.660156 4 C 16.320313 4 15.058594 4.519531 14.121094 5.460938 L 5.460938 14.121094 C 4.519531 15.070313 4 16.320313 4 17.660156 L 4 57 C 4 58.648438 5.351563 60 7 60 L 47 60 C 48.648438 60 50 58.648438 50 57 L 50 46 L 60 46 C 61.101563 46 62 45.101563 62 44 L 62 24 C 62 22.898438 61.101563 22 60 22 L 50 22 L 50 7 C 50 5.351563 48.648438 4 47 4 Z M 18 6 L 47 6 C 47.550781 6 48 6.449219 48 7 L 48 22 L 16 22 C 14.898438 22 14 22.898438 14 24 L 14 44 C 14 45.101563 14.898438 46 16 46 L 48 46 L 48 57 C 48 57.550781 47.550781 58 47 58 L 7 58 C 6.449219 58 6 57.550781 6 57 L 6 18 L 15 18 C 16.652344 18 18 16.652344 18 15 Z M 16 6.5 L 16 15 C 16 15.550781 15.550781 16 15 16 L 6.5 16 C 6.613281 15.835938 6.738281 15.679688 6.882813 15.539063 L 15.539063 6.882813 C 15.679688 6.738281 15.835938 6.609375 16 6.5 Z M 16 24 L 60 24 L 60 44 L 16 44 Z M 35 28 C 33.347656 28 32 29.347656 32 31 L 32 37 C 32 38.652344 33.347656 40 35 40 L 37 40 C 38.652344 40 40 38.652344 40 37 L 40 31 C 40 29.347656 38.652344 28 37 28 Z M 43 28 C 42.445313 28 42 28.445313 42 29 L 42 39 C 42 39.554688 42.445313 40 43 40 C 43.554688 40 44 39.554688 44 39 L 44 36 L 47 36 C 47.554688 36 48 35.554688 48 35 C 48 34.445313 47.554688 34 47 34 L 44 34 L 44 30 L 48 30 C 48.554688 30 49 29.554688 49 29 C 49 28.445313 48.554688 28 48 28 Z M 51 28 C 50.445313 28 50 28.445313 50 29 L 50 39 C 50 39.554688 50.445313 40 51 40 C 51.554688 40 52 39.554688 52 39 L 52 36 L 55 36 C 55.554688 36 56 35.554688 56 35 C 56 34.445313 55.554688 34 55 34 L 52 34 L 52 30 L 56 30 C 56.554688 30 57 29.554688 57 29 C 57 28.445313 56.554688 28 56 28 Z M 19.800781 28.019531 C 19.261719 28.128906 18.910156 28.65625 19.019531 29.199219 L 21.019531 39.199219 C 21.109375 39.640625 21.484375 39.96875 21.9375 40 C 22.402344 40.023438 22.804688 39.746094 22.949219 39.316406 L 25 33.160156 L 27.050781 39.316406 C 27.1875 39.726563 27.570313 40 28 40 C 28.019531 40 28.042969 40 28.0625 40 C 28.515625 39.96875 28.890625 39.640625 28.980469 39.195313 L 30.980469 29.195313 C 31.089844 28.652344 30.734375 28.128906 30.195313 28.019531 C 29.65625 27.90625 29.128906 28.261719 29.019531 28.804688 L 27.757813 35.109375 L 25.949219 29.683594 C 25.8125 29.273438 25.429688 29 25 29 C 24.570313 29 24.1875 29.273438 24.050781 29.683594 L 22.242188 35.109375 L 20.980469 28.804688 C 20.871094 28.261719 20.351563 27.90625 19.800781 28.019531 Z M 35 30 L 37 30 C 37.550781 30 38 30.449219 38 31 L 38 37 C 38 37.550781 37.550781 38 37 38 L 35 38 C 34.449219 38 34 37.550781 34 37 L 34 31 C 34 30.449219 34.449219 30 35 30 Z M 9 52 C 8.445313 52 8 52.445313 8 53 L 8 55 C 8 55.554688 8.445313 56 9 56 C 9.554688 56 10 55.554688 10 55 L 10 53 C 10 52.445313 9.554688 52 9 52 Z M 14 52 C 13.445313 52 13 52.445313 13 53 L 13 55 C 13 55.554688 13.445313 56 14 56 C 14.554688 56 15 55.554688 15 55 L 15 53 C 15 52.445313 14.554688 52 14 52 Z M 19 52 C 18.445313 52 18 52.445313 18 53 L 18 55 C 18 55.554688 18.445313 56 19 56 C 19.554688 56 20 55.554688 20 55 L 20 53 C 20 52.445313 19.554688 52 19 52 Z M 24 52 C 23.445313 52 23 52.445313 23 53 L 23 55 C 23 55.554688 23.445313 56 24 56 C 24.554688 56 25 55.554688 25 55 L 25 53 C 25 52.445313 24.554688 52 24 52 Z M 29 52 C 28.445313 52 28 52.445313 28 53 L 28 55 C 28 55.554688 28.445313 56 29 56 C 29.554688 56 30 55.554688 30 55 L 30 53 C 30 52.445313 29.554688 52 29 52 Z M 34 52 C 33.445313 52 33 52.445313 33 53 L 33 55 C 33 55.554688 33.445313 56 34 56 C 34.554688 56 35 55.554688 35 55 L 35 53 C 35 52.445313 34.554688 52 34 52 Z M 39 52 C 38.445313 52 38 52.445313 38 53 L 38 55 C 38 55.554688 38.445313 56 39 56 C 39.554688 56 40 55.554688 40 55 L 40 53 C 40 52.445313 39.554688 52 39 52 Z M 44 52 C 43.445313 52 43 52.445313 43 53 L 43 55 C 43 55.554688 43.445313 56 44 56 C 44.554688 56 45 55.554688 45 55 L 45 53 C 45 52.445313 44.554688 52 44 52 Z"/></svg>