<?xml version="1.0"?><svg fill="#000000" xmlns="http://www.w3.org/2000/svg"  viewBox="0 0 64 64" width="64px" height="64px">    <path d="M 17.65625 4 C 16.32025 4 15.065094 4.5208437 14.121094 5.4648438 L 5.4648438 14.121094 C 4.5208438 15.066094 4 16.32125 4 17.65625 L 4 57 C 4 58.654 5.346 60 7 60 L 47 60 C 48.654 60 50 58.654 50 57 L 50 46 L 58 46 C 59.103 46 60 45.103 60 44 L 60 24 C 60 22.897 59.103 22 58 22 L 50 22 L 50 7 C 50 5.346 48.654 4 47 4 L 17.65625 4 z M 18 6 L 47 6 C 47.552 6 48 6.449 48 7 L 48 22 L 16 22 C 14.897 22 14 22.897 14 24 L 14 44 C 14 45.103 14.897 46 16 46 L 48 46 L 48 57 C 48 57.551 47.552 58 47 58 L 7 58 C 6.448 58 6 57.551 6 57 L 6 18 L 15 18 C 16.654 18 18 16.654 18 15 L 18 6 z M 16 6.4980469 L 16 15 C 16 15.551 15.552 16 15 16 L 6.4980469 16 C 6.6080469 15.835 6.7349062 15.679156 6.8789062 15.535156 L 15.535156 6.8789062 C 15.679156 6.7349062 15.834 6.6080469 16 6.4980469 z M 16 24 L 58 24 L 58 44 L 16 44 L 16 24 z M 45 28 C 44.448 28 44 28.448 44 29 L 44 39 C 44 39.552 44.448 40 45 40 L 50 40 C 50.552 40 51 39.552 51 39 C 51 38.448 50.552 38 50 38 L 46 38 L 46 29 C 46 28.448 45.552 28 45 28 z M 35.107422 28.005859 C 34.997219 27.993891 34.883484 28.001094 34.771484 28.027344 C 34.319484 28.133344 34 28.536 34 29 L 34 39 C 34 39.552 34.447 40 35 40 C 35.553 40 36 39.552 36 39 L 36 33.236328 L 37.105469 35.447266 C 37.445469 36.125266 38.554531 36.125266 38.894531 35.447266 L 40 33.236328 L 40 39 C 40 39.552 40.447 40 41 40 C 41.553 40 42 39.552 42 39 L 42 29 C 42 28.536 41.680516 28.133344 41.228516 28.027344 C 40.780516 27.921344 40.312469 28.137734 40.105469 28.552734 L 38 32.763672 L 35.894531 28.552734 C 35.739281 28.241484 35.438031 28.041766 35.107422 28.005859 z M 31.136719 28.007812 C 30.751828 27.95325 30.354375 28.127219 30.140625 28.480469 L 28 32.060547 L 25.859375 28.490234 C 25.517375 28.056234 24.888078 27.981266 24.455078 28.322266 C 24.104078 28.599266 23.980391 29.076234 24.150391 29.490234 L 26.830078 34 L 24.140625 38.490234 C 23.930625 39.001234 24.173594 39.585875 24.683594 39.796875 C 25.096594 39.966875 25.572609 39.842234 25.849609 39.490234 L 28 35.939453 L 30.140625 39.509766 C 30.350625 40.020766 30.934313 40.263734 31.445312 40.052734 C 31.956312 39.842734 32.199281 39.257094 31.988281 38.746094 C 31.953281 38.661094 31.906609 38.582766 31.849609 38.509766 L 29.169922 34 L 31.859375 29.509766 C 32.141375 29.034766 31.984766 28.422625 31.509766 28.140625 C 31.391766 28.069875 31.265016 28.026 31.136719 28.007812 z M 9 52 C 8.447 52 8 52.448 8 53 L 8 55 C 8 55.552 8.447 56 9 56 C 9.553 56 10 55.552 10 55 L 10 53 C 10 52.448 9.553 52 9 52 z M 14 52 C 13.447 52 13 52.448 13 53 L 13 55 C 13 55.552 13.447 56 14 56 C 14.553 56 15 55.552 15 55 L 15 53 C 15 52.448 14.553 52 14 52 z M 19 52 C 18.447 52 18 52.448 18 53 L 18 55 C 18 55.552 18.447 56 19 56 C 19.553 56 20 55.552 20 55 L 20 53 C 20 52.448 19.553 52 19 52 z M 24 52 C 23.447 52 23 52.448 23 53 L 23 55 C 23 55.552 23.447 56 24 56 C 24.553 56 25 55.552 25 55 L 25 53 C 25 52.448 24.553 52 24 52 z M 29 52 C 28.447 52 28 52.448 28 53 L 28 55 C 28 55.552 28.447 56 29 56 C 29.553 56 30 55.552 30 55 L 30 53 C 30 52.448 29.553 52 29 52 z M 34 52 C 33.447 52 33 52.448 33 53 L 33 55 C 33 55.552 33.447 56 34 56 C 34.553 56 35 55.552 35 55 L 35 53 C 35 52.448 34.553 52 34 52 z M 39 52 C 38.447 52 38 52.448 38 53 L 38 55 C 38 55.552 38.447 56 39 56 C 39.553 56 40 55.552 40 55 L 40 53 C 40 52.448 39.553 52 39 52 z M 44 52 C 43.447 52 43 52.448 43 53 L 43 55 C 43 55.552 43.447 56 44 56 C 44.553 56 45 55.552 45 55 L 45 53 C 45 52.448 44.553 52 44 52 z"/></svg>