<svg width="33" height="32" viewBox="0 0 33 32" fill="none" xmlns="http://www.w3.org/2000/svg">
<rect x="0.5" width="32" height="32" rx="16" fill="#312E8E"/>
<path d="M10.686 21.3334C9.91553 18.8719 11.4565 13.1283 16.85 13.1283V11.4873C16.85 11.3349 16.8898 11.1855 16.965 11.0559C17.0403 10.9263 17.1479 10.8215 17.2759 10.7534C17.4039 10.6852 17.5471 10.6564 17.6897 10.6701C17.8322 10.6837 17.9683 10.7394 18.0828 10.8309L22.1918 14.1129C22.2875 14.1893 22.3652 14.2884 22.4187 14.4024C22.4722 14.5163 22.5 14.6419 22.5 14.7693C22.5 14.8967 22.4722 15.0223 22.4187 15.1363C22.3652 15.2502 22.2875 15.3493 22.1918 15.4257L18.0828 18.7078C17.9683 18.7992 17.8322 18.8549 17.6897 18.8686C17.5471 18.8822 17.4039 18.8534 17.2759 18.7853C17.1479 18.7171 17.0403 18.6124 16.965 18.4827C16.8898 18.3531 16.85 18.2037 16.85 18.0514V16.4103C11.4565 17.2309 10.686 21.3334 10.686 21.3334Z" fill="white"/>
</svg>
