<svg width="33" height="32" viewBox="0 0 33 32" fill="none" xmlns="http://www.w3.org/2000/svg">
<rect x="0.666992" y="0.5" width="31" height="31" rx="15.5" stroke="#312E8E"/>
<path d="M13.027 22C12.893 21.9996 12.7608 21.9688 12.6394 21.9097C12.5181 21.8506 12.4105 21.7646 12.3242 21.6577C12.2379 21.5508 12.175 21.4257 12.1398 21.2909C12.1046 21.156 12.0979 21.0149 12.1203 20.8771L12.6382 17.7281L10.4445 15.4992C10.3216 15.3741 10.2347 15.2156 10.1937 15.0416C10.1526 14.8677 10.159 14.6852 10.2121 14.5148C10.2652 14.3445 10.363 14.193 10.4942 14.0775C10.6255 13.962 10.7851 13.8871 10.9551 13.8612L13.9858 13.4018L15.3413 10.5357C15.4172 10.3749 15.5348 10.2395 15.6807 10.1449C15.8267 10.0502 15.9951 10 16.1669 10C16.3388 10 16.5072 10.0502 16.6531 10.1449C16.799 10.2395 16.9166 10.3749 16.9926 10.5357L18.348 13.4006L21.3788 13.86C21.5487 13.8857 21.7083 13.9605 21.8397 14.0759C21.971 14.1914 22.0687 14.3428 22.1218 14.5131C22.175 14.6835 22.1813 14.8659 22.1403 15.0399C22.0992 15.2138 22.0123 15.3723 21.8894 15.4974L19.6957 17.7281L20.2135 20.8765C20.2425 21.0531 20.2236 21.2346 20.1589 21.4006C20.0942 21.5666 19.9862 21.7103 19.8473 21.8156C19.7083 21.9209 19.5439 21.9836 19.3725 21.9965C19.2012 22.0094 19.0299 21.972 18.8778 21.8886L16.1669 20.402L13.456 21.8886C13.3238 21.9616 13.1765 21.9998 13.027 22ZM11.6883 15.0135L13.5808 16.9388C13.6878 17.0474 13.7678 17.1816 13.8139 17.3297C13.86 17.4778 13.8708 17.6354 13.8454 17.7888L13.399 20.5066L15.7391 19.2228C15.8712 19.151 16.0179 19.1134 16.1669 19.1134C16.3159 19.1134 16.4626 19.151 16.5947 19.2228L18.9348 20.5059L18.4878 17.7888C18.4626 17.6353 18.4736 17.4777 18.5199 17.3296C18.5663 17.1814 18.6465 17.0473 18.7536 16.9388L20.6455 15.0142L18.03 14.618C17.8824 14.5955 17.7423 14.5361 17.6216 14.4447C17.5008 14.3534 17.4032 14.2328 17.337 14.0934L16.1669 11.6186L14.9975 14.0909C14.9314 14.2305 14.8338 14.3513 14.713 14.4429C14.5923 14.5345 14.4521 14.5941 14.3044 14.6167L11.6883 15.0135Z" fill="#312E8E"/>
</svg>
