<svg width="15" height="15" viewBox="0 0 15 15" fill="none" xmlns="http://www.w3.org/2000/svg">
<path d="M6.37505 10.875C5.48503 10.875 4.61499 10.6111 3.87496 10.1166C3.13493 9.62214 2.55815 8.91934 2.21755 8.09707C1.87695 7.27481 1.78783 6.37001 1.96147 5.49709C2.1351 4.62418 2.56369 3.82236 3.19304 3.19302C3.82238 2.56368 4.62421 2.1351 5.49714 1.96147C6.37006 1.78783 7.27487 1.87695 8.09715 2.21754C8.91943 2.55814 9.62224 3.13491 10.1167 3.87493C10.6112 4.61496 10.8751 5.48498 10.8751 6.375C10.8738 7.56806 10.3992 8.71188 9.55559 9.5555C8.71196 10.3991 7.56813 10.8737 6.37505 10.875ZM6.37505 3C5.70753 3 5.05501 3.19794 4.49998 3.56879C3.94496 3.93964 3.51237 4.46674 3.25692 5.08344C3.00148 5.70014 2.93464 6.37874 3.06487 7.03343C3.19509 7.68811 3.51653 8.28948 3.98854 8.76148C4.46055 9.23349 5.06192 9.55492 5.71662 9.68515C6.37131 9.81537 7.04992 9.74854 7.66663 9.49309C8.28333 9.23765 8.81044 8.80506 9.1813 8.25005C9.55215 7.69503 9.75009 7.04251 9.75009 6.375C9.7492 5.48017 9.39333 4.62224 8.76058 3.9895C8.12783 3.35676 7.2699 3.00089 6.37505 3Z" fill="#9CA3AF"/>
<path d="M12.5626 13.125C12.4134 13.125 12.2704 13.0657 12.1649 12.9602L9.91489 10.7102C9.81243 10.6041 9.75573 10.462 9.75701 10.3145C9.7583 10.167 9.81745 10.026 9.92175 9.92167C10.026 9.81737 10.1671 9.75822 10.3146 9.75693C10.4621 9.75565 10.6042 9.81235 10.7103 9.91481L12.9603 12.1648C13.039 12.2435 13.0925 12.3437 13.1142 12.4528C13.1359 12.5619 13.1248 12.675 13.0822 12.7777C13.0396 12.8805 12.9675 12.9684 12.8751 13.0302C12.7826 13.092 12.6738 13.125 12.5626 13.125Z" fill="#9CA3AF"/>
</svg>
