<svg width="32" height="40" viewBox="0 0 32 40" fill="none" xmlns="http://www.w3.org/2000/svg">
<path d="M16 19.798C18.3564 19.798 20.2666 17.9556 20.2666 15.6828C20.2666 13.4101 18.3564 11.5677 16 11.5677C13.6436 11.5677 11.7333 13.4101 11.7333 15.6828C11.7333 17.9556 13.6436 19.798 16 19.798Z" fill="#057A55"/>
<path d="M16 0C11.7579 0.00435723 7.69089 1.6316 4.6913 4.52468C1.6917 7.41776 0.00454593 11.3404 2.8279e-05 15.4318C-0.00643766 18.7325 1.09608 21.9465 3.14242 24.5921C3.18109 24.657 3.22384 24.7195 3.27042 24.7794L14.2933 39.1659C14.4917 39.4246 14.7502 39.6348 15.0481 39.7797C15.346 39.9245 15.6749 40 16.0085 40C16.3421 40 16.6711 39.9245 16.969 39.7797C17.2668 39.6348 17.5253 39.4246 17.7237 39.1659L28.7381 24.7794C28.7847 24.7202 28.8274 24.6584 28.8661 24.5942C30.9094 21.9467 32.0089 18.7322 31.9999 15.4318C31.9954 11.3404 30.3083 7.41776 27.3087 4.52468C24.3091 1.6316 20.2421 0.00435723 16 0ZM16 23.9131C14.3123 23.9131 12.6624 23.4304 11.2591 22.5261C9.85584 21.6217 8.7621 20.3363 8.11623 18.8324C7.47037 17.3285 7.30138 15.6737 7.63064 14.0772C7.9599 12.4807 8.77262 11.0142 9.96602 9.86313C11.1594 8.7121 12.6799 7.92824 14.3352 7.61068C15.9905 7.29311 17.7063 7.4561 19.2655 8.07903C20.8248 8.70196 22.1575 9.75686 23.0952 11.1103C24.0328 12.4638 24.5333 14.055 24.5333 15.6828C24.5333 17.8656 23.6343 19.959 22.0339 21.5025C20.4336 23.046 18.2632 23.9131 16 23.9131Z" fill="#057A55"/>
</svg>
